# 3ds Max Wavefront OBJ Exporter v0.97b - (c)2007 guruware
# File Created: 14.06.2016 19:45:48

mtllib FireDoors.mtl

#
# object FireDoor
#

v  0.0850 3.4502 0.9700
v  0.0850 3.4502 -0.9700
v  -0.0550 3.4502 -0.9700
v  -0.0550 3.4502 0.9700
v  0.0850 3.4202 -1.0000
v  0.0850 0.1368 -1.0000
v  -0.0550 0.1368 -1.0000
v  -0.0550 3.4202 -1.0000
v  -0.0550 3.4202 1.0000
v  -0.0550 0.1368 1.0000
v  0.0850 0.1368 1.0000
v  0.0850 3.4202 1.0000
v  -0.0850 3.2714 0.8212
v  -0.0850 0.1309 0.8297
v  -0.0850 0.1372 0.9704
v  -0.0850 3.4290 0.9788
v  -0.0850 3.4290 -0.9788
v  -0.0850 3.2714 -0.8212
v  -0.0850 0.0000 -0.9700
v  -0.0850 0.0000 -0.8300
v  -0.0850 0.0890 -0.8298
v  -0.0850 0.0933 -0.9702
v  -0.0250 0.1288 -0.8000
v  0.0850 0.1288 -0.8000
v  0.0850 3.2202 -0.8000
v  -0.0550 3.2202 -0.8000
v  -0.0763 0.1303 -0.8211
v  0.0850 3.2502 -0.7700
v  0.0850 3.2502 0.7700
v  -0.0550 3.2502 0.7700
v  -0.0550 3.2502 -0.7700
v  -0.0550 3.2202 0.8000
v  -0.0550 0.0930 -1.0000
v  -0.0850 0.1372 -0.9703
v  -0.0550 0.0988 0.8000
v  -0.0850 0.0943 0.8298
v  -0.0763 0.1303 0.8211
v  -0.0850 0.1309 -0.8296
v  0.0850 3.2202 0.8000
v  -0.0150 3.2502 0.8000
v  -0.0150 3.2502 -0.8000
v  -0.0150 0.0000 -0.8000
v  -0.0150 0.0000 0.8000
v  0.0850 0.0930 -1.0000
v  -0.0550 0.0986 1.0000
v  0.0850 0.0986 1.0000
v  -0.0850 0.0000 0.9700
v  -0.0850 0.0988 0.9703
v  -0.0850 0.0000 0.8300
v  0.0850 0.1288 0.8000
v  -0.0250 0.1288 0.8000
v  -0.0550 0.0988 -0.8000
v  -0.0550 0.0000 0.8000
v  -0.0550 0.0000 -0.8000
v  -0.0550 0.0000 1.0000
v  0.0850 0.0000 1.0000
v  -0.0550 0.0000 -1.0000
v  0.0850 0.0000 -1.0000
v  0.0091 1.7177 0.6614
v  0.0091 1.7141 0.6433
v  -0.0529 1.7141 0.6433
v  -0.0529 1.7177 0.6614
v  0.0091 1.7038 0.6279
v  -0.0529 1.7038 0.6279
v  0.0091 1.6884 0.6176
v  -0.0529 1.6884 0.6176
v  0.0091 1.6703 0.6140
v  -0.0529 1.6703 0.6140
v  0.0091 1.6521 0.6176
v  -0.0529 1.6521 0.6176
v  0.0091 1.6368 0.6279
v  -0.0529 1.6368 0.6279
v  0.0091 1.6265 0.6433
v  -0.0529 1.6265 0.6433
v  0.0091 1.6229 0.6614
v  -0.0529 1.6229 0.6614
v  0.0091 1.6265 0.6796
v  -0.0529 1.6265 0.6796
v  0.0091 1.6368 0.6949
v  -0.0529 1.6368 0.6949
v  0.0091 1.6521 0.7052
v  -0.0529 1.6521 0.7052
v  0.0091 1.6703 0.7088
v  -0.0529 1.6703 0.7088
v  0.0091 1.6884 0.7052
v  -0.0529 1.6884 0.7052
v  0.0091 1.7038 0.6949
v  -0.0529 1.7038 0.6949
v  0.0091 1.7141 0.6796
v  -0.0529 1.7141 0.6796
v  -0.1529 1.7141 0.6433
v  -0.1529 1.7038 0.6279
v  -0.1529 1.6884 0.6176
v  -0.1529 1.6703 0.6140
v  -0.1529 1.6521 0.6176
v  -0.1529 1.6368 0.6279
v  -0.1529 1.6265 0.6433
v  -0.1529 1.6229 0.6614
v  -0.1529 1.6265 0.6796
v  -0.1529 1.6368 0.6949
v  -0.1529 1.6521 0.7052
v  -0.1529 1.6703 0.7088
v  -0.1529 1.6884 0.7052
v  -0.1529 1.7038 0.6949
v  -0.1529 1.7141 0.6796
v  -0.1529 1.7177 0.6614
v  -0.0854 1.7496 0.6614
v  -0.0854 1.7436 0.6311
v  -0.1204 1.7436 0.6311
v  -0.1204 1.7496 0.6614
v  -0.0854 1.7264 0.6054
v  -0.1204 1.7264 0.6054
v  -0.0854 1.7006 0.5882
v  -0.1204 1.7006 0.5882
v  -0.0854 1.6703 0.5821
v  -0.1204 1.6703 0.5821
v  -0.0854 1.6399 0.5882
v  -0.1204 1.6399 0.5882
v  -0.0854 1.6142 0.6054
v  -0.1204 1.6142 0.6054
v  -0.0854 1.5970 0.6311
v  -0.1204 1.5970 0.6311
v  -0.0854 1.5910 0.6614
v  -0.1204 1.5910 0.6614
v  -0.0854 1.5970 0.6918
v  -0.1204 1.5970 0.6918
v  -0.0854 1.6142 0.7175
v  -0.1204 1.6142 0.7175
v  -0.0854 1.6399 0.7347
v  -0.1204 1.6399 0.7347
v  -0.0854 1.6703 0.7407
v  -0.1204 1.6703 0.7407
v  -0.0854 1.7006 0.7347
v  -0.1204 1.7006 0.7347
v  -0.0854 1.7264 0.7175
v  -0.1204 1.7264 0.7175
v  -0.0854 1.7436 0.6918
v  -0.1204 1.7436 0.6918
# 138 vertices

vn 0.0000 0.9999 0.0152
vn 0.0000 0.9999 -0.0152
vn -0.1381 0.9903 -0.0137
vn -0.1372 0.9905 0.0137
vn 0.0000 0.0091 -1.0000
vn 0.0000 0.0000 -1.0000
vn -0.1711 -0.0004 -0.9852
vn -0.1377 0.0082 -0.9904
vn -0.1377 0.0082 0.9904
vn -0.1711 -0.0004 0.9852
vn 0.0000 0.0000 1.0000
vn 0.0000 0.0091 1.0000
vn -0.9994 -0.0166 -0.0314
vn -0.9981 -0.0000 -0.0622
vn -0.9844 -0.0004 0.1757
vn -0.9800 0.1015 0.1710
vn -0.9816 0.0980 -0.1637
vn -0.9995 -0.0148 0.0297
vn -0.9845 -0.0004 -0.1754
vn -0.9849 -0.0005 0.1734
vn -0.9838 -0.0002 0.1791
vn -0.9846 -0.0002 -0.1746
vn -0.2001 0.3997 0.8945
vn -0.0000 0.4597 0.8881
vn 0.0000 -0.0097 1.0000
vn -0.1833 -0.0089 0.9830
vn -0.4430 -0.0014 0.8965
vn 0.0000 -0.9998 0.0191
vn -0.0000 -0.9998 -0.0191
vn -0.1887 -0.9819 -0.0161
vn -0.1806 -0.9834 0.0164
vn -0.1840 -0.0090 -0.9829
vn -0.1726 -0.0000 -0.9850
vn -0.9844 -0.0005 -0.1757
vn -0.9740 0.2254 -0.0215
vn -0.9846 -0.0005 -0.1749
vn -0.1718 -0.0042 -0.9851
vn -0.9981 -0.0000 0.0613
vn -0.0000 -0.0096 -1.0000
vn -1.0000 0.0000 0.0000
vn 0.0000 -0.0000 -1.0000
vn -0.1730 -0.0002 0.9849
vn -0.9845 -0.0001 0.1753
vn -0.9846 -0.0004 0.1750
vn -0.9840 -0.0001 -0.1784
vn -0.1193 0.3288 -0.9368
vn -0.2071 0.9783 -0.0050
vn -0.9740 0.2253 0.0219
vn -0.9998 0.0000 -0.0184
vn -0.9999 -0.0000 0.0171
vn -0.1738 0.0000 0.9848
vn -0.1737 -0.0003 -0.9848
vn 0.0000 1.0000 0.0000
vn -0.0000 0.9239 -0.3827
vn 0.3957 0.8485 -0.3514
vn 0.3957 0.9184 -0.0000
vn -0.0000 0.7071 -0.7071
vn 0.3957 0.6494 -0.6494
vn -0.0000 0.3827 -0.9239
vn 0.3957 0.3514 -0.8485
vn -0.0000 0.0000 -1.0000
vn 0.3957 0.0000 -0.9184
vn -0.0000 -0.3827 -0.9239
vn 0.3957 -0.3514 -0.8485
vn -0.0000 -0.7071 -0.7071
vn 0.3957 -0.6494 -0.6494
vn -0.0000 -0.9239 -0.3827
vn 0.3957 -0.8485 -0.3514
vn -0.0000 -1.0000 -0.0000
vn 0.3957 -0.9184 -0.0000
vn 0.0000 -0.9239 0.3827
vn 0.3957 -0.8485 0.3514
vn -0.0000 -0.7071 0.7071
vn 0.3957 -0.6494 0.6494
vn -0.0000 -0.3827 0.9239
vn 0.3957 -0.3514 0.8485
vn -0.0000 -0.0000 1.0000
vn 0.3957 0.0000 0.9184
vn -0.0000 0.3827 0.9239
vn 0.3957 0.3514 0.8485
vn -0.0000 0.7071 0.7071
vn 0.3957 0.6494 0.6494
vn 0.0000 0.9239 0.3827
vn 0.3957 0.8485 0.3514
vn 0.0000 1.0000 -0.0000
vn -0.3627 0.8610 -0.3566
vn -0.3627 0.9319 0.0000
vn -0.3627 0.6590 -0.6590
vn -0.3627 0.3566 -0.8610
vn -0.0000 -0.0000 -1.0000
vn -0.3627 0.0000 -0.9319
vn -0.3627 -0.3566 -0.8610
vn -0.3627 -0.6590 -0.6590
vn -0.3627 -0.8610 -0.3566
vn 0.0000 -1.0000 -0.0000
vn -0.3627 -0.9319 0.0000
vn -0.3627 -0.8610 0.3566
vn 0.0000 -0.7071 0.7071
vn -0.3627 -0.6590 0.6590
vn 0.0000 -0.3827 0.9239
vn -0.3627 -0.3566 0.8610
vn -0.3627 0.0000 0.9319
vn 0.0000 0.3827 0.9239
vn -0.3627 0.3566 0.8610
vn 0.0000 0.7071 0.7071
vn -0.3627 0.6590 0.6590
vn -0.3627 0.8610 0.3566
vn 0.7002 0.6596 -0.2732
vn 0.7002 0.7139 -0.0000
vn 0.7002 0.5048 -0.5048
vn 0.7002 0.2732 -0.6596
vn 0.7002 -0.0000 -0.7139
vn 0.7002 -0.2732 -0.6596
vn 0.7002 -0.5048 -0.5048
vn 0.7002 -0.6596 -0.2732
vn 0.7002 -0.7139 -0.0000
vn 0.7002 -0.6596 0.2732
vn 0.7002 -0.5048 0.5048
vn 0.7002 -0.2732 0.6596
vn 0.7002 0.0000 0.7139
vn 0.7002 0.2732 0.6596
vn 0.7002 0.5048 0.5048
vn 0.7002 0.6596 0.2732
vn -0.7002 0.6596 -0.2732
vn -0.7002 0.7140 0.0000
vn -0.7002 0.6596 0.2732
vn -0.7002 0.5048 0.5048
vn -0.7002 0.2732 0.6596
vn -0.7002 0.0000 0.7140
vn -0.7002 -0.2732 0.6596
vn -0.7002 -0.5048 0.5048
vn -0.7002 -0.6596 0.2732
vn -0.7002 -0.7140 0.0000
vn -0.7002 -0.6596 -0.2732
vn -0.7002 -0.5048 -0.5048
vn -0.7002 -0.2732 -0.6596
vn -0.7002 0.0000 -0.7140
vn -0.7002 0.2732 -0.6596
vn -0.7002 0.5048 -0.5048
# 139 vertex normals

vt 0.8149 0.9464 0.0000
vt 0.7014 0.9464 0.0000
vt 0.7015 0.9385 0.0000
vt 0.8147 0.9385 0.0000
vt 0.6910 0.9372 0.0000
vt 0.6909 0.7457 0.0000
vt 0.6991 0.7455 0.0000
vt 0.6991 0.9374 0.0000
vt 0.8171 0.9374 0.0000
vt 0.8172 0.7455 0.0000
vt 0.8253 0.7457 0.0000
vt 0.8253 0.9372 0.0000
vt 0.8060 0.9279 0.0000
vt 0.8065 0.7446 0.0000
vt 0.8147 0.7452 0.0000
vt 0.8151 0.9369 0.0000
vt 0.7011 0.9369 0.0000
vt 0.7102 0.9279 0.0000
vt 0.7015 0.7372 0.0000
vt 0.7097 0.7369 0.0000
vt 0.7097 0.7421 0.0000
vt 0.7015 0.7426 0.0000
vt 0.7139 0.7443 0.0000
vt 0.7204 0.7442 0.0000
vt 0.7209 0.9245 0.0000
vt 0.7125 0.9246 0.0000
vt 0.7122 0.7460 0.0000
vt 0.7132 0.9184 0.0000
vt 0.8030 0.9184 0.0000
vt 0.8030 0.9266 0.0000
vt 0.7132 0.9266 0.0000
vt 0.8037 0.9246 0.0000
vt 0.6987 0.9461 0.0000
vt 0.8175 0.9461 0.0000
vt 0.6991 0.7430 0.0000
vt 0.7015 0.7452 0.0000
vt 0.8040 0.7425 0.0000
vt 0.8065 0.7424 0.0000
vt 0.8058 0.7445 0.0000
vt 0.7097 0.7446 0.0000
vt 0.7210 0.9269 0.0000
vt 0.7952 0.9269 0.0000
vt 0.7953 0.9245 0.0000
vt 0.8160 0.6152 0.0000
vt 0.7138 0.6152 0.0000
vt 0.7143 0.4176 0.0000
vt 0.8165 0.4176 0.0000
vt 0.6909 0.7431 0.0000
vt 0.8172 0.7433 0.0000
vt 0.8253 0.7435 0.0000
vt 0.8147 0.7372 0.0000
vt 0.8147 0.7429 0.0000
vt 0.8065 0.7369 0.0000
vt 0.7959 0.7442 0.0000
vt 0.8023 0.7443 0.0000
vt 0.7122 0.7425 0.0000
vt 0.8041 0.7368 0.0000
vt 0.7122 0.7368 0.0000
vt 0.8172 0.7375 0.0000
vt 0.8253 0.7377 0.0000
vt 0.6991 0.7375 0.0000
vt 0.6909 0.7377 0.0000
vt 0.7738 0.9166 0.0000
vt 0.7757 0.9193 0.0000
vt 0.7653 0.9265 0.0000
vt 0.7629 0.9229 0.0000
vt 0.7780 0.9218 0.0000
vt 0.7680 0.9296 0.0000
vt 0.7804 0.9246 0.0000
vt 0.7708 0.9321 0.0000
vt 0.7799 0.8784 0.0000
vt 0.7775 0.8811 0.0000
vt 0.7674 0.8736 0.0000
vt 0.7701 0.8710 0.0000
vt 0.7753 0.8838 0.0000
vt 0.7648 0.8768 0.0000
vt 0.7735 0.8865 0.0000
vt 0.7624 0.8804 0.0000
vt 0.7720 0.8893 0.0000
vt 0.7604 0.8844 0.0000
vt 0.7709 0.8923 0.0000
vt 0.7589 0.8885 0.0000
vt 0.7701 0.8953 0.0000
vt 0.7578 0.8928 0.0000
vt 0.7696 0.8984 0.0000
vt 0.7571 0.8973 0.0000
vt 0.7695 0.9016 0.0000
vt 0.7569 0.9017 0.0000
vt 0.7697 0.9047 0.0000
vt 0.7572 0.9062 0.0000
vt 0.7702 0.9078 0.0000
vt 0.7580 0.9106 0.0000
vt 0.7711 0.9109 0.0000
vt 0.7592 0.9149 0.0000
vt 0.7723 0.9138 0.0000
vt 0.7608 0.9190 0.0000
vt 0.7530 0.8020 0.0000
vt 0.7486 0.7991 0.0000
vt 0.7456 0.7946 0.0000
vt 0.7445 0.7893 0.0000
vt 0.7456 0.7841 0.0000
vt 0.7486 0.7796 0.0000
vt 0.7530 0.7766 0.0000
vt 0.7583 0.7756 0.0000
vt 0.7636 0.7766 0.0000
vt 0.7680 0.7796 0.0000
vt 0.7710 0.7841 0.0000
vt 0.7720 0.7893 0.0000
vt 0.7710 0.7946 0.0000
vt 0.7680 0.7991 0.0000
vt 0.7636 0.8020 0.0000
vt 0.7583 0.8031 0.0000
vt 0.7583 0.8265 0.0000
vt 0.7441 0.8237 0.0000
vt 0.7480 0.8142 0.0000
vt 0.7583 0.8163 0.0000
vt 0.7320 0.8156 0.0000
vt 0.7393 0.8084 0.0000
vt 0.7240 0.8036 0.0000
vt 0.7334 0.7996 0.0000
vt 0.7211 0.7893 0.0000
vt 0.7314 0.7893 0.0000
vt 0.7240 0.7751 0.0000
vt 0.7334 0.7790 0.0000
vt 0.7320 0.7631 0.0000
vt 0.7393 0.7703 0.0000
vt 0.7441 0.7550 0.0000
vt 0.7480 0.7645 0.0000
vt 0.7583 0.7522 0.0000
vt 0.7583 0.7624 0.0000
vt 0.7725 0.7550 0.0000
vt 0.7686 0.7645 0.0000
vt 0.7846 0.7631 0.0000
vt 0.7773 0.7703 0.0000
vt 0.7926 0.7751 0.0000
vt 0.7832 0.7790 0.0000
vt 0.7954 0.7893 0.0000
vt 0.7852 0.7893 0.0000
vt 0.7926 0.8036 0.0000
vt 0.7832 0.7996 0.0000
vt 0.7846 0.8156 0.0000
vt 0.7773 0.8084 0.0000
vt 0.7725 0.8237 0.0000
vt 0.7686 0.8142 0.0000
vt 0.7583 0.9325 0.0000
vt 0.7551 0.9279 0.0000
vt 0.7622 0.9368 0.0000
vt 0.7672 0.9402 0.0000
vt 0.7614 0.8665 0.0000
vt 0.7663 0.8630 0.0000
vt 0.7576 0.8709 0.0000
vt 0.7545 0.8756 0.0000
vt 0.7520 0.8806 0.0000
vt 0.7501 0.8857 0.0000
vt 0.7487 0.8910 0.0000
vt 0.7479 0.8964 0.0000
vt 0.7477 0.9018 0.0000
vt 0.7481 0.9073 0.0000
vt 0.7490 0.9126 0.0000
vt 0.7505 0.9179 0.0000
vt 0.7525 0.9230 0.0000
# 161 texture coords

g FireDoor
usemtl Material__3003
s 1
f 1/1/1 2/2/2 3/3/3 
f 3/3/3 4/4/4 1/1/1 
f 5/5/5 6/6/6 7/7/7 
f 7/7/7 8/8/8 5/5/5 
f 9/9/9 10/10/10 11/11/11 
f 11/11/11 12/12/12 9/9/9 
f 13/13/13 14/14/14 15/15/15 
f 15/15/15 16/16/16 13/13/13 
f 16/16/16 17/17/17 18/18/18 
f 18/18/18 13/13/13 16/16/16 
f 19/19/19 20/20/20 21/21/21 
f 21/21/21 22/22/22 19/19/19 
f 23/23/23 24/24/24 25/25/25 
f 23/23/23 25/25/25 26/26/26 
f 23/23/23 26/26/26 27/27/27 
f 28/28/28 29/29/29 30/30/30 
f 30/30/30 31/31/31 28/28/28 
f 9/9/9 4/4/4 16/16/16 
f 17/17/17 3/3/3 8/8/8 
f 13/13/13 30/30/30 32/32/32 
f 18/18/18 26/26/26 31/31/31 
f 2/2/2 5/33/5 8/8/8 
f 8/8/8 3/3/3 2/2/2 
f 16/16/16 4/4/4 3/3/3 
f 3/3/3 17/17/17 16/16/16 
f 4/4/4 9/9/9 12/34/12 
f 12/34/12 1/1/1 4/4/4 
f 7/7/7 33/35/33 22/22/22 
f 22/22/22 34/36/34 7/7/7 
f 16/16/16 15/15/15 10/10/10 
f 10/10/10 9/9/9 16/16/16 
f 35/37/35 36/38/36 14/14/14 
f 14/14/14 37/39/37 35/37/35 
f 18/18/18 31/31/31 30/30/30 
f 30/30/30 13/13/13 18/18/18 
f 26/26/26 18/18/18 38/40/38 
f 38/40/38 27/27/27 26/26/26 
f 25/25/25 28/41/28 31/31/31 
f 31/31/31 26/26/26 25/25/25 
f 29/42/29 39/43/39 32/32/32 
f 32/32/32 30/30/30 29/42/29 
f 40/44/40 41/45/40 42/46/40 
f 42/46/40 43/47/40 40/44/40 
f 6/6/6 44/48/41 33/35/33 
f 33/35/33 7/7/7 6/6/6 
f 10/10/10 45/49/42 46/50/11 
f 46/50/11 11/11/11 10/10/10 
f 47/51/43 48/52/44 36/38/36 
f 36/38/36 49/53/45 47/51/43 
f 18/18/18 17/17/17 34/36/34 
f 34/36/34 38/40/38 18/18/18 
f 50/54/46 51/55/47 37/39/37 
f 50/54/46 37/39/37 32/32/32 
f 50/54/46 32/32/32 39/43/39 
f 17/17/17 8/8/8 7/7/7 
f 7/7/7 34/36/34 17/17/17 
f 10/10/10 15/15/15 48/52/44 
f 48/52/44 45/49/42 10/10/10 
f 14/14/14 13/13/13 32/32/32 
f 32/32/32 37/39/37 14/14/14 
f 27/27/27 38/40/38 21/21/21 
f 21/21/21 52/56/48 27/27/27 
f 53/57/49 35/37/35 52/56/48 
f 52/56/48 54/58/50 53/57/49 
f 51/55/47 50/54/46 24/24/24 
f 24/24/24 23/23/23 51/55/47 
f 27/27/27 52/56/48 23/23/23 
f 35/37/35 37/39/37 51/55/47 
f 35/37/35 51/55/47 23/23/23 
f 23/23/23 52/56/48 35/37/35 
f 55/59/51 56/60/11 46/50/11 
f 46/50/11 45/49/42 55/59/51 
f 48/52/44 15/15/15 14/14/14 
f 14/14/14 36/38/36 48/52/44 
f 47/51/43 55/59/51 45/49/42 
f 45/49/42 48/52/44 47/51/43 
f 38/40/38 34/36/34 22/22/22 
f 22/22/22 21/21/21 38/40/38 
f 57/61/52 19/19/19 22/22/22 
f 22/22/22 33/35/33 57/61/52 
f 58/62/41 57/61/52 33/35/33 
f 33/35/33 44/48/41 58/62/41 
f 21/21/21 20/20/20 54/58/50 
f 54/58/50 52/56/48 21/21/21 
f 35/37/35 53/57/49 49/53/45 
f 49/53/45 36/38/36 35/37/35 
s 2
f 59/63/53 60/64/54 61/65/55 
f 61/65/55 62/66/56 59/63/53 
f 60/64/54 63/67/57 64/68/58 
f 64/68/58 61/65/55 60/64/54 
f 63/67/57 65/69/59 66/70/60 
f 66/70/60 64/68/58 63/67/57 
f 65/71/59 67/72/61 68/73/62 
f 68/73/62 66/74/60 65/71/59 
f 67/72/61 69/75/63 70/76/64 
f 70/76/64 68/73/62 67/72/61 
f 69/75/63 71/77/65 72/78/66 
f 72/78/66 70/76/64 69/75/63 
f 71/77/65 73/79/67 74/80/68 
f 74/80/68 72/78/66 71/77/65 
f 73/79/67 75/81/69 76/82/70 
f 76/82/70 74/80/68 73/79/67 
f 75/81/69 77/83/71 78/84/72 
f 78/84/72 76/82/70 75/81/69 
f 77/83/71 79/85/73 80/86/74 
f 80/86/74 78/84/72 77/83/71 
f 79/85/73 81/87/75 82/88/76 
f 82/88/76 80/86/74 79/85/73 
f 81/87/75 83/89/77 84/90/78 
f 84/90/78 82/88/76 81/87/75 
f 83/89/77 85/91/79 86/92/80 
f 86/92/80 84/90/78 83/89/77 
f 85/91/79 87/93/81 88/94/82 
f 88/94/82 86/92/80 85/91/79 
f 87/93/81 89/95/83 90/96/84 
f 90/96/84 88/94/82 87/93/81 
f 89/95/83 59/63/53 62/66/56 
f 62/66/56 90/96/84 89/95/83 
s 4
f 91/97/40 92/98/40 93/99/40 
f 93/99/40 94/100/40 95/101/40 
f 95/101/40 96/102/40 97/103/40 
f 93/99/40 95/101/40 97/103/40 
f 97/103/40 98/104/40 99/105/40 
f 99/105/40 100/106/40 101/107/40 
f 97/103/40 99/105/40 101/107/40 
f 101/107/40 102/108/40 103/109/40 
f 103/109/40 104/110/40 105/111/40 
f 101/107/40 103/109/40 105/111/40 
f 97/103/40 101/107/40 105/111/40 
f 93/99/40 97/103/40 105/111/40 
f 91/97/40 93/99/40 105/111/40 
f 106/112/40 91/97/40 105/111/40 
s 1
f 107/113/85 108/114/54 109/115/86 
f 109/115/86 110/116/87 107/113/85 
f 108/114/54 111/117/57 112/118/88 
f 112/118/88 109/115/86 108/114/54 
f 111/117/57 113/119/59 114/120/89 
f 114/120/89 112/118/88 111/117/57 
f 113/119/59 115/121/90 116/122/91 
f 116/122/91 114/120/89 113/119/59 
f 115/121/90 117/123/63 118/124/92 
f 118/124/92 116/122/91 115/121/90 
f 117/123/63 119/125/65 120/126/93 
f 120/126/93 118/124/92 117/123/63 
f 119/125/65 121/127/67 122/128/94 
f 122/128/94 120/126/93 119/125/65 
f 121/127/67 123/129/95 124/130/96 
f 124/130/96 122/128/94 121/127/67 
f 123/129/95 125/131/71 126/132/97 
f 126/132/97 124/130/96 123/129/95 
f 125/131/71 127/133/98 128/134/99 
f 128/134/99 126/132/97 125/131/71 
f 127/133/98 129/135/100 130/136/101 
f 130/136/101 128/134/99 127/133/98 
f 129/135/100 131/137/11 132/138/102 
f 132/138/102 130/136/101 129/135/100 
f 131/137/11 133/139/103 134/140/104 
f 134/140/104 132/138/102 131/137/11 
f 133/139/103 135/141/105 136/142/106 
f 136/142/106 134/140/104 133/139/103 
f 135/141/105 137/143/83 138/144/107 
f 138/144/107 136/142/106 135/141/105 
f 137/143/83 107/113/85 110/116/87 
f 110/116/87 138/144/107 137/143/83 
s 2
f 62/66/56 61/65/55 108/145/108 
f 108/145/108 107/146/109 62/66/56 
f 61/65/55 64/68/58 111/147/110 
f 111/147/110 108/145/108 61/65/55 
f 64/68/58 66/70/60 113/148/111 
f 113/148/111 111/147/110 64/68/58 
f 66/74/60 68/73/62 115/149/112 
f 115/149/112 113/150/111 66/74/60 
f 68/73/62 70/76/64 117/151/113 
f 117/151/113 115/149/112 68/73/62 
f 70/76/64 72/78/66 119/152/114 
f 119/152/114 117/151/113 70/76/64 
f 72/78/66 74/80/68 121/153/115 
f 121/153/115 119/152/114 72/78/66 
f 74/80/68 76/82/70 123/154/116 
f 123/154/116 121/153/115 74/80/68 
f 76/82/70 78/84/72 125/155/117 
f 125/155/117 123/154/116 76/82/70 
f 78/84/72 80/86/74 127/156/118 
f 127/156/118 125/155/117 78/84/72 
f 80/86/74 82/88/76 129/157/119 
f 129/157/119 127/156/118 80/86/74 
f 82/88/76 84/90/78 131/158/120 
f 131/158/120 129/157/119 82/88/76 
f 84/90/78 86/92/80 133/159/121 
f 133/159/121 131/158/120 84/90/78 
f 86/92/80 88/94/82 135/160/122 
f 135/160/122 133/159/121 86/92/80 
f 88/94/82 90/96/84 137/161/123 
f 137/161/123 135/160/122 88/94/82 
f 90/96/84 62/66/56 107/146/109 
f 107/146/109 137/161/123 90/96/84 
s 1
f 91/97/124 106/112/125 110/116/87 
f 110/116/87 109/115/86 91/97/124 
f 106/112/125 105/111/126 138/144/107 
f 138/144/107 110/116/87 106/112/125 
f 105/111/126 104/110/127 136/142/106 
f 136/142/106 138/144/107 105/111/126 
f 104/110/127 103/109/128 134/140/104 
f 134/140/104 136/142/106 104/110/127 
f 103/109/128 102/108/129 132/138/102 
f 132/138/102 134/140/104 103/109/128 
f 102/108/129 101/107/130 130/136/101 
f 130/136/101 132/138/102 102/108/129 
f 101/107/130 100/106/131 128/134/99 
f 128/134/99 130/136/101 101/107/130 
f 100/106/131 99/105/132 126/132/97 
f 126/132/97 128/134/99 100/106/131 
f 99/105/132 98/104/133 124/130/96 
f 124/130/96 126/132/97 99/105/132 
f 98/104/133 97/103/134 122/128/94 
f 122/128/94 124/130/96 98/104/133 
f 97/103/134 96/102/135 120/126/93 
f 120/126/93 122/128/94 97/103/134 
f 96/102/135 95/101/136 118/124/92 
f 118/124/92 120/126/93 96/102/135 
f 95/101/136 94/100/137 116/122/91 
f 116/122/91 118/124/92 95/101/136 
f 94/100/137 93/99/138 114/120/89 
f 114/120/89 116/122/91 94/100/137 
f 93/99/138 92/98/139 112/118/88 
f 112/118/88 114/120/89 93/99/138 
f 92/98/139 91/97/124 109/115/86 
f 109/115/86 112/118/88 92/98/139 
# 228 faces

