# 3ds Max Wavefront OBJ Exporter v0.97b - (c)2007 guruware
# File Created: 06.06.2016 21:57:12

mtllib SmallBench.mtl

#
# object SmallBench
#

v  -0.8674 -0.0063 0.1801
v  -0.8361 -0.0063 0.2514
v  -1.0195 -0.0063 0.2514
v  -0.9882 -0.0063 0.1801
v  -0.8361 0.0347 0.2514
v  -0.8674 0.0347 0.1801
v  -0.9882 0.0347 0.1801
v  -1.0195 0.0347 0.2514
v  -1.0195 -0.0063 -0.1787
v  -1.0195 0.0347 -0.1787
v  -0.8361 0.0347 -0.1787
v  -0.8361 -0.0063 -0.1787
v  -0.8674 -0.0063 -0.0292
v  -0.9882 -0.0063 -0.0292
v  -0.9882 0.0347 -0.0292
v  -0.8674 0.0347 -0.0292
v  -0.8674 0.5836 -0.1454
v  -0.9882 0.5836 -0.1454
v  -0.8674 0.5836 -0.3547
v  -0.9882 0.5836 -0.3547
v  -0.9882 0.5836 0.3546
v  -0.8674 0.5836 0.3546
v  -0.8674 0.6836 0.3546
v  -0.9882 0.6836 0.3547
v  -0.8674 0.6836 -0.3547
v  -0.9882 0.6836 -0.3547
v  0.9574 -0.0063 0.1801
v  0.9887 -0.0063 0.2514
v  0.8053 -0.0063 0.2514
v  0.8366 -0.0063 0.1801
v  0.9887 0.0347 0.2514
v  0.9574 0.0347 0.1801
v  0.8366 0.0347 0.1801
v  0.8053 0.0347 0.2514
v  0.8053 -0.0063 -0.1787
v  0.8053 0.0347 -0.1787
v  0.9887 0.0347 -0.1787
v  0.9887 -0.0063 -0.1787
v  0.9574 -0.0063 -0.0292
v  0.8366 -0.0063 -0.0292
v  0.8366 0.0347 -0.0292
v  0.9574 0.0347 -0.0292
v  0.9574 0.5836 -0.1454
v  0.8366 0.5836 -0.1454
v  0.9574 0.5836 -0.3547
v  0.8366 0.5836 -0.3547
v  0.8366 0.5836 0.3546
v  0.9574 0.5836 0.3546
v  0.9574 0.6836 0.3546
v  0.8366 0.6836 0.3546
v  0.9574 0.6836 -0.3547
v  0.8366 0.6836 -0.3547
v  -0.9091 0.6084 0.0760
v  -0.9091 0.6084 -0.0840
v  0.8366 0.6084 -0.0840
v  0.8366 0.6084 0.0760
v  -0.9091 0.6584 0.0760
v  0.8366 0.6584 0.0760
v  0.8366 0.6584 -0.0840
v  -0.9091 0.6584 -0.0840
v  -0.9091 0.6284 0.0960
v  0.8366 0.6284 0.0960
v  0.8366 0.6384 0.0960
v  -0.9091 0.6384 0.0960
v  0.8366 0.6284 -0.1040
v  -0.9091 0.6284 -0.1040
v  -0.9091 0.6384 -0.1040
v  0.8366 0.6384 -0.1040
v  -0.9091 0.6134 -0.0990
v  0.8366 0.6134 -0.0990
v  0.8366 0.6134 0.0910
v  -0.9091 0.6134 0.0910
v  -0.9091 0.6534 0.0910
v  0.8366 0.6534 0.0910
v  0.8366 0.6534 -0.0990
v  -0.9091 0.6534 -0.0990
v  -0.9091 0.6084 0.3224
v  -0.9091 0.6084 0.1624
v  0.8366 0.6084 0.1624
v  0.8366 0.6084 0.3224
v  -0.9091 0.6584 0.3224
v  0.8366 0.6584 0.3224
v  0.8366 0.6584 0.1624
v  -0.9091 0.6584 0.1624
v  -0.9091 0.6284 0.3424
v  0.8366 0.6284 0.3424
v  0.8366 0.6384 0.3424
v  -0.9091 0.6384 0.3424
v  0.8366 0.6284 0.1424
v  -0.9091 0.6284 0.1424
v  -0.9091 0.6384 0.1424
v  0.8366 0.6384 0.1424
v  -0.9091 0.6134 0.1474
v  0.8366 0.6134 0.1474
v  0.8366 0.6134 0.3374
v  -0.9091 0.6134 0.3374
v  -0.9091 0.6534 0.3374
v  0.8366 0.6534 0.3374
v  0.8366 0.6534 0.1474
v  -0.9091 0.6534 0.1474
v  -0.9091 0.6084 -0.1705
v  -0.9091 0.6084 -0.3305
v  0.8366 0.6084 -0.3305
v  0.8366 0.6084 -0.1704
v  -0.9091 0.6584 -0.1705
v  0.8366 0.6584 -0.1704
v  0.8366 0.6584 -0.3304
v  -0.9091 0.6584 -0.3305
v  -0.9091 0.6284 -0.1505
v  0.8366 0.6284 -0.1504
v  0.8366 0.6384 -0.1504
v  -0.9091 0.6384 -0.1505
v  0.8366 0.6284 -0.3504
v  -0.9091 0.6284 -0.3505
v  -0.9091 0.6384 -0.3505
v  0.8366 0.6384 -0.3504
v  -0.9091 0.6134 -0.3455
v  0.8366 0.6134 -0.3454
v  0.8366 0.6134 -0.1554
v  -0.9091 0.6134 -0.1555
v  -0.9091 0.6534 -0.1555
v  0.8366 0.6534 -0.1554
v  0.8366 0.6534 -0.3454
v  -0.9091 0.6534 -0.3455
# 124 vertices

vn -0.0000 -1.0000 -0.0000
vn 0.0000 -1.0000 -0.0000
vn 0.0000 1.0000 0.0000
vn -0.0000 1.0000 0.0000
vn 0.0000 -0.0000 1.0000
vn -0.0000 -0.0000 1.0000
vn 0.0000 0.0000 -1.0000
vn -0.0000 -1.0000 0.0000
vn 1.0000 0.0000 0.0000
vn 1.0000 -0.0000 0.0000
vn -1.0000 0.0000 -0.0000
vn -1.0000 -0.0000 -0.0000
vn 0.0000 1.0000 -0.0000
vn 0.0000 0.5100 0.8602
vn -0.0000 -0.5100 -0.8602
vn 0.0000 -1.0000 0.0000
vn -0.0000 -0.9871 0.1602
vn 0.0000 -0.9871 -0.1602
vn -0.0000 -0.9871 -0.1601
vn -0.0000 -0.9871 0.1601
vn 0.0000 0.9871 0.1602
vn 0.0000 0.9871 -0.1602
vn -0.0000 -0.1602 0.9871
vn -0.0000 0.1602 0.9871
vn 0.0000 -0.1602 -0.9871
vn 0.0000 0.1602 -0.9871
vn 0.0000 -0.7071 -0.7072
vn 0.0000 -0.7071 -0.7071
vn -0.0000 -0.7072 0.7070
vn -0.0000 -0.7071 0.7071
vn -0.0000 0.7071 0.7071
vn 0.0000 0.7071 -0.7071
vn -0.0000 -0.9871 -0.1602
vn -0.0000 -0.7072 0.7071
vn -0.0000 -0.1601 0.9871
vn 0.0000 -0.1601 -0.9871
vn 0.0000 0.1603 -0.9871
# 37 vertex normals

vt 1.5090 0.1956 0.0000
vt 1.5052 0.1973 0.0000
vt 1.5052 0.1874 0.0000
vt 1.5090 0.1891 0.0000
vt 1.4382 0.3223 0.0000
vt 1.4366 0.3262 0.0000
vt 1.4300 0.3262 0.0000
vt 1.4284 0.3223 0.0000
vt 1.5179 0.3673 0.0000
vt 1.5179 0.3651 0.0000
vt 1.5278 0.3651 0.0000
vt 1.5278 0.3673 0.0000
vt 1.4474 0.3673 0.0000
vt 1.4474 0.3651 0.0000
vt 1.4573 0.3651 0.0000
vt 1.4573 0.3673 0.0000
vt 1.5203 0.1956 0.0000
vt 1.5203 0.1891 0.0000
vt 1.5907 0.1421 0.0000
vt 1.5885 0.1421 0.0000
vt 1.5885 0.1189 0.0000
vt 1.5907 0.1189 0.0000
vt 1.2987 0.7506 0.0000
vt 1.2965 0.7506 0.0000
vt 1.2965 0.7275 0.0000
vt 1.2987 0.7275 0.0000
vt 1.5284 0.1973 0.0000
vt 1.5284 0.1874 0.0000
vt 1.4284 0.3455 0.0000
vt 1.4300 0.3375 0.0000
vt 1.4366 0.3375 0.0000
vt 1.4382 0.3455 0.0000
vt 1.9565 0.6985 0.0000
vt 1.9565 0.7050 0.0000
vt 1.9221 0.7050 0.0000
vt 1.9221 0.6985 0.0000
vt 1.3055 0.7230 0.0000
vt 1.3168 0.7230 0.0000
vt 1.3343 0.7526 0.0000
vt 1.3230 0.7526 0.0000
vt 1.9980 0.5767 0.0000
vt 1.9980 0.5832 0.0000
vt 1.9636 0.5832 0.0000
vt 1.9636 0.5767 0.0000
vt 1.2017 0.6996 0.0000
vt 1.1905 0.6996 0.0000
vt 1.2080 0.6700 0.0000
vt 1.2193 0.6700 0.0000
vt 1.4590 0.3270 0.0000
vt 1.4590 0.3335 0.0000
vt 1.4536 0.3335 0.0000
vt 1.4536 0.3270 0.0000
vt 1.3343 0.7580 0.0000
vt 1.4611 0.3332 0.0000
vt 1.4611 0.3267 0.0000
vt 1.4665 0.3267 0.0000
vt 1.4665 0.3332 0.0000
vt 1.2193 0.6646 0.0000
vt 1.1885 0.6996 0.0000
vt 1.1820 0.6996 0.0000
vt 1.1820 0.6726 0.0000
vt 1.1885 0.6726 0.0000
vt 1.2961 0.7580 0.0000
vt 1.2961 0.7526 0.0000
vt 1.7754 0.9634 0.0000
vt 1.7754 0.9569 0.0000
vt 1.8137 0.9569 0.0000
vt 1.8137 0.9634 0.0000
vt 1.1810 0.6700 0.0000
vt 1.1810 0.6646 0.0000
vt 0.5090 0.1956 0.0000
vt 0.5052 0.1973 0.0000
vt 0.5052 0.1874 0.0000
vt 0.5090 0.1891 0.0000
vt 0.4382 0.3223 0.0000
vt 0.4366 0.3262 0.0000
vt 0.4300 0.3262 0.0000
vt 0.4284 0.3223 0.0000
vt 0.5179 0.3673 0.0000
vt 0.5179 0.3651 0.0000
vt 0.5278 0.3651 0.0000
vt 0.5278 0.3673 0.0000
vt 0.4474 0.3673 0.0000
vt 0.4474 0.3651 0.0000
vt 0.4573 0.3651 0.0000
vt 0.4573 0.3673 0.0000
vt 0.5203 0.1956 0.0000
vt 0.5203 0.1891 0.0000
vt 0.5907 0.1421 0.0000
vt 0.5885 0.1421 0.0000
vt 0.5885 0.1189 0.0000
vt 0.5907 0.1189 0.0000
vt 0.2987 0.7506 0.0000
vt 0.2965 0.7506 0.0000
vt 0.2965 0.7275 0.0000
vt 0.2987 0.7275 0.0000
vt 0.5284 0.1973 0.0000
vt 0.5284 0.1874 0.0000
vt 0.4284 0.3455 0.0000
vt 0.4300 0.3375 0.0000
vt 0.4366 0.3375 0.0000
vt 0.4382 0.3455 0.0000
vt 0.9565 0.6985 0.0000
vt 0.9565 0.7050 0.0000
vt 0.9221 0.7050 0.0000
vt 0.9221 0.6985 0.0000
vt 0.3055 0.7230 0.0000
vt 0.3168 0.7230 0.0000
vt 0.3343 0.7526 0.0000
vt 0.3230 0.7526 0.0000
vt 0.9980 0.5767 0.0000
vt 0.9980 0.5832 0.0000
vt 0.9636 0.5832 0.0000
vt 0.9636 0.5767 0.0000
vt 0.2017 0.6996 0.0000
vt 0.1905 0.6996 0.0000
vt 0.2080 0.6700 0.0000
vt 0.2193 0.6700 0.0000
vt 0.4590 0.3270 0.0000
vt 0.4590 0.3335 0.0000
vt 0.4536 0.3335 0.0000
vt 0.4536 0.3270 0.0000
vt 0.3343 0.7580 0.0000
vt 0.4611 0.3332 0.0000
vt 0.4611 0.3267 0.0000
vt 0.4665 0.3267 0.0000
vt 0.4665 0.3332 0.0000
vt 0.2193 0.6646 0.0000
vt 0.1885 0.6996 0.0000
vt 0.1820 0.6996 0.0000
vt 0.1820 0.6726 0.0000
vt 0.1885 0.6726 0.0000
vt 0.2961 0.7580 0.0000
vt 0.2961 0.7526 0.0000
vt 0.7754 0.9634 0.0000
vt 0.7754 0.9569 0.0000
vt 0.8137 0.9569 0.0000
vt 0.8137 0.9634 0.0000
vt 0.1810 0.6700 0.0000
vt 0.1810 0.6646 0.0000
vt 1.4572 0.1410 0.0000
vt 1.4486 0.1410 0.0000
vt 1.4486 0.0469 0.0000
vt 1.4572 0.0469 0.0000
vt 1.4612 0.1410 0.0000
vt 1.4612 0.0469 0.0000
vt 1.4698 0.0469 0.0000
vt 1.4698 0.1410 0.0000
vt 1.4589 0.1410 0.0000
vt 1.4589 0.0469 0.0000
vt 1.4595 0.0469 0.0000
vt 1.4595 0.1410 0.0000
vt 1.4720 0.0469 0.0000
vt 1.4720 0.1410 0.0000
vt 1.4715 0.1410 0.0000
vt 1.4715 0.0469 0.0000
vt 1.4478 0.1410 0.0000
vt 1.4478 0.0469 0.0000
vt 1.4581 0.0469 0.0000
vt 1.4581 0.1410 0.0000
vt 1.4603 0.1410 0.0000
vt 1.4603 0.0469 0.0000
vt 1.4707 0.0469 0.0000
vt 1.4707 0.1410 0.0000
vt 1.4469 0.1410 0.0000
vt 1.4469 0.0469 0.0000
vt 0.4572 0.1410 0.0000
vt 0.4486 0.1410 0.0000
vt 0.4486 0.0469 0.0000
vt 0.4572 0.0469 0.0000
vt 0.4612 0.1410 0.0000
vt 0.4612 0.0469 0.0000
vt 0.4698 0.0469 0.0000
vt 0.4698 0.1410 0.0000
vt 0.4589 0.1410 0.0000
vt 0.4589 0.0469 0.0000
vt 0.4595 0.0469 0.0000
vt 0.4595 0.1410 0.0000
vt 0.4720 0.0469 0.0000
vt 0.4720 0.1410 0.0000
vt 0.4715 0.1410 0.0000
vt 0.4715 0.0469 0.0000
vt 0.4478 0.1410 0.0000
vt 0.4478 0.0469 0.0000
vt 0.4581 0.0469 0.0000
vt 0.4581 0.1410 0.0000
vt 0.4603 0.1410 0.0000
vt 0.4603 0.0469 0.0000
vt 0.4707 0.0469 0.0000
vt 0.4707 0.1410 0.0000
vt 0.4469 0.1410 0.0000
vt 0.4469 0.0469 0.0000
# 192 texture coords

g SmallBench
usemtl Material__3097
s 1
f 1/1/1 2/2/1 3/3/1 
f 3/3/1 4/4/2 1/1/1 
f 5/5/3 6/6/3 7/7/4 
f 7/7/4 8/8/4 5/5/3 
s 2
f 2/9/5 5/10/5 8/11/5 
f 8/11/5 3/12/6 2/9/5 
f 9/13/7 10/14/7 11/15/7 
f 11/15/7 12/16/7 9/13/7 
s 1
f 13/17/8 1/1/1 4/4/2 
f 4/4/2 14/18/8 13/17/8 
s 4
f 12/19/9 11/20/9 5/21/10 
f 5/21/10 2/22/10 12/19/9 
f 3/23/11 8/24/11 10/25/12 
f 10/25/12 9/26/12 3/23/11 
s 1
f 12/27/8 13/17/8 14/18/8 
f 14/18/8 9/28/8 12/27/8 
f 10/29/3 15/30/13 16/31/4 
f 16/31/4 11/32/4 10/29/3 
f 12/27/8 2/2/1 1/1/1 
f 1/1/1 13/17/8 12/27/8 
f 3/3/1 9/28/8 14/18/8 
f 14/18/8 4/4/2 3/3/1 
f 10/29/3 8/8/4 7/7/4 
f 7/7/4 15/30/13 10/29/3 
f 5/5/3 11/32/4 16/31/4 
f 16/31/4 6/6/3 5/5/3 
s 2
f 7/33/14 6/34/14 17/35/14 
f 17/35/14 18/36/14 7/33/14 
s 4
f 6/37/9 16/38/9 19/39/9 
f 19/39/9 17/40/9 6/37/9 
s 2
f 16/41/15 15/42/15 20/43/15 
f 20/43/15 19/44/15 16/41/15 
s 4
f 15/45/12 7/46/12 18/47/12 
f 18/47/12 20/48/12 15/45/12 
s 1
f 21/49/5 22/50/6 23/51/5 
f 23/51/5 24/52/5 21/49/5 
s 4
f 17/40/9 19/39/9 25/53/9 
s 1
f 19/54/7 20/55/7 26/56/7 
f 26/56/7 25/57/7 19/54/7 
s 4
f 20/48/12 18/47/12 26/58/12 
s 8
f 18/59/1 17/60/8 22/61/1 
f 22/61/1 21/62/1 18/59/1 
s 4
f 17/40/9 25/53/9 23/63/9 
f 23/63/9 22/64/9 17/40/9 
s 2
f 25/65/3 26/66/3 24/67/3 
f 24/67/3 23/68/3 25/65/3 
s 4
f 26/58/12 18/47/12 21/69/12 
f 21/69/12 24/70/12 26/58/12 
s 1
f 27/71/1 28/72/1 29/73/1 
f 29/73/1 30/74/1 27/71/1 
f 31/75/3 32/76/3 33/77/4 
f 33/77/4 34/78/4 31/75/3 
s 2
f 28/79/6 31/80/6 34/81/6 
f 34/81/6 29/82/6 28/79/6 
f 35/83/7 36/84/7 37/85/7 
f 37/85/7 38/86/7 35/83/7 
s 1
f 39/87/1 27/71/1 30/74/1 
f 30/74/1 40/88/16 39/87/1 
s 4
f 38/89/9 37/90/9 31/91/9 
f 31/91/9 28/92/9 38/89/9 
f 29/93/12 34/94/12 36/95/12 
f 36/95/12 35/96/12 29/93/12 
s 1
f 38/97/8 39/87/1 40/88/16 
f 40/88/16 35/98/8 38/97/8 
f 36/99/3 41/100/13 42/101/3 
f 42/101/3 37/102/3 36/99/3 
f 38/97/8 28/72/1 27/71/1 
f 27/71/1 39/87/1 38/97/8 
f 29/73/1 35/98/8 40/88/16 
f 40/88/16 30/74/1 29/73/1 
f 36/99/3 34/78/4 33/77/4 
f 33/77/4 41/100/13 36/99/3 
f 31/75/3 37/102/3 42/101/3 
f 42/101/3 32/76/3 31/75/3 
s 2
f 33/103/14 32/104/14 43/105/14 
f 43/105/14 44/106/14 33/103/14 
s 4
f 32/107/10 42/108/10 45/109/10 
f 45/109/10 43/110/10 32/107/10 
s 2
f 42/111/15 41/112/15 46/113/15 
f 46/113/15 45/114/15 42/111/15 
s 4
f 41/115/11 33/116/11 44/117/12 
f 44/117/12 46/118/12 41/115/11 
s 1
f 47/119/6 48/120/6 49/121/6 
f 49/121/6 50/122/6 47/119/6 
s 4
f 43/110/10 45/109/10 51/123/10 
s 1
f 45/124/7 46/125/7 52/126/7 
f 52/126/7 51/127/7 45/124/7 
s 4
f 46/118/12 44/117/12 52/128/12 
s 8
f 44/129/1 43/130/1 48/131/1 
f 48/131/1 47/132/1 44/129/1 
s 4
f 43/110/10 51/123/10 49/133/9 
f 49/133/9 48/134/9 43/110/10 
s 2
f 51/135/3 52/136/3 50/137/3 
f 50/137/3 49/138/3 51/135/3 
s 4
f 52/128/12 44/117/12 47/139/12 
f 47/139/12 50/140/12 52/128/12 
s 1
f 53/141/17 54/142/18 55/143/19 
f 55/143/19 56/144/20 53/141/17 
f 57/145/21 58/146/21 59/147/22 
f 59/147/22 60/148/22 57/145/21 
f 61/149/23 62/150/23 63/151/24 
f 63/151/24 64/152/24 61/149/23 
f 65/153/25 66/154/25 67/155/26 
f 67/155/26 68/156/26 65/153/25 
f 69/157/27 70/158/28 55/143/19 
f 55/143/19 54/142/18 69/157/27 
f 71/159/29 72/160/30 53/141/17 
f 53/141/17 56/144/20 71/159/29 
f 73/161/31 74/162/31 58/146/21 
f 58/146/21 57/145/21 73/161/31 
f 75/163/32 76/164/32 60/148/22 
f 60/148/22 59/147/22 75/163/32 
f 66/165/25 65/166/25 70/158/28 
f 70/158/28 69/157/27 66/165/25 
f 62/150/23 61/149/23 72/160/30 
f 72/160/30 71/159/29 62/150/23 
f 64/152/24 63/151/24 74/162/31 
f 74/162/31 73/161/31 64/152/24 
f 68/156/26 67/155/26 76/164/32 
f 76/164/32 75/163/32 68/156/26 
f 77/167/17 78/168/18 79/169/33 
f 79/169/33 80/170/20 77/167/17 
f 81/171/21 82/172/21 83/173/22 
f 83/173/22 84/174/22 81/171/21 
f 85/175/23 86/176/23 87/177/24 
f 87/177/24 88/178/24 85/175/23 
f 89/179/25 90/180/25 91/181/26 
f 91/181/26 92/182/26 89/179/25 
f 93/183/28 94/184/28 79/169/33 
f 79/169/33 78/168/18 93/183/28 
f 95/185/34 96/186/30 77/167/17 
f 77/167/17 80/170/20 95/185/34 
f 97/187/31 98/188/31 82/172/21 
f 82/172/21 81/171/21 97/187/31 
f 99/189/32 100/190/32 84/174/22 
f 84/174/22 83/173/22 99/189/32 
f 90/191/25 89/192/25 94/184/28 
f 94/184/28 93/183/28 90/191/25 
f 86/176/23 85/175/23 96/186/30 
f 96/186/30 95/185/34 86/176/23 
f 88/178/24 87/177/24 98/188/31 
f 98/188/31 97/187/31 88/178/24 
f 92/182/26 91/181/26 100/190/32 
f 100/190/32 99/189/32 92/182/26 
f 101/141/17 102/142/18 103/143/19 
f 103/143/19 104/144/20 101/141/17 
f 105/145/21 106/146/21 107/147/22 
f 107/147/22 108/148/22 105/145/21 
f 109/149/35 110/150/35 111/151/24 
f 111/151/24 112/152/24 109/149/35 
f 113/153/36 114/154/36 115/155/37 
f 115/155/37 116/156/26 113/153/36 
f 117/157/28 118/158/28 103/143/19 
f 103/143/19 102/142/18 117/157/28 
f 119/159/34 120/160/30 101/141/17 
f 101/141/17 104/144/20 119/159/34 
f 121/161/31 122/162/31 106/146/21 
f 106/146/21 105/145/21 121/161/31 
f 123/163/32 124/164/32 108/148/22 
f 108/148/22 107/147/22 123/163/32 
f 114/165/36 113/166/36 118/158/28 
f 118/158/28 117/157/28 114/165/36 
f 110/150/35 109/149/35 120/160/30 
f 120/160/30 119/159/34 110/150/35 
f 112/152/24 111/151/24 122/162/31 
f 122/162/31 121/161/31 112/152/24 
f 116/156/26 115/155/37 124/164/32 
f 124/164/32 123/163/32 116/156/26 
# 168 faces

