# 3ds Max Wavefront OBJ Exporter v0.97b - (c)2007 guruware
# File Created: 05.06.2016 16:44:27

mtllib Road2TurnsMarkings.mtl

#
# object Road2TurnsMarkings
#

v  11.9000 0.1500 -7.5000
v  11.6000 0.1500 -7.5000
v  11.6000 0.1500 7.5000
v  11.9000 0.1500 7.5000
v  3.1000 0.1500 7.5000
v  3.4000 0.1500 7.5000
v  3.3860 0.1500 7.1772
v  3.0841 0.1500 7.1926
v  2.9389 0.1500 6.2875
v  3.2389 0.1500 6.2275
v  3.1552 0.1500 5.9831
v  2.8669 0.1500 6.0711
v  2.5201 0.1500 5.4767
v  2.7508 0.1500 5.3146
v  2.5987 0.1500 5.1194
v  2.3826 0.1500 5.2966
v  1.8666 0.1500 4.8571
v  2.0373 0.1500 4.6349
v  1.7932 0.1500 4.4852
v  1.6477 0.1500 4.7328
v  0.9749 0.1500 4.2109
v  0.7341 0.1500 4.1639
v  0.6882 0.1500 4.4725
v  0.9149 0.1500 4.5165
v  1.2591 0.1500 4.2739
v  1.1683 0.1500 4.5657
v  1.4143 0.1500 4.6371
v  1.5331 0.1500 4.3652
v  2.2422 0.1500 4.7769
v  2.0562 0.1500 4.9835
v  2.2280 0.1500 5.1314
v  2.4294 0.1500 4.9394
v  2.9073 0.1500 5.5260
v  2.6549 0.1500 5.6649
v  2.7705 0.1500 5.8640
v  3.0424 0.1500 5.7500
v  3.3153 0.1500 6.5385
v  3.0122 0.1500 6.5843
v  3.0590 0.1500 6.8862
v  3.3621 0.1500 6.8553
v  0.2457 0.1500 4.1123
v  0.2303 0.1500 4.4163
v  0.4597 0.1500 4.4393
v  0.4906 0.1500 4.1326
v  -0.0000 0.1500 4.1000
v  -0.0000 0.1500 4.4000
v  3.1000 0.1500 -7.5000
v  3.0841 0.1500 -7.1926
v  3.3860 0.1500 -7.1772
v  3.4000 0.1500 -7.5000
v  2.9389 0.1500 -6.2875
v  2.8669 0.1500 -6.0711
v  3.1552 0.1500 -5.9831
v  3.2389 0.1500 -6.2275
v  2.5201 0.1500 -5.4767
v  2.3826 0.1500 -5.2966
v  2.5987 0.1500 -5.1194
v  2.7508 0.1500 -5.3146
v  1.8666 0.1500 -4.8571
v  1.6477 0.1500 -4.7328
v  1.7932 0.1500 -4.4852
v  2.0373 0.1500 -4.6349
v  0.9749 0.1500 -4.2109
v  0.9149 0.1500 -4.5165
v  0.6882 0.1500 -4.4725
v  0.7341 0.1500 -4.1639
v  1.2591 0.1500 -4.2739
v  1.5331 0.1500 -4.3652
v  1.4143 0.1500 -4.6371
v  1.1683 0.1500 -4.5657
v  2.2422 0.1500 -4.7769
v  2.4294 0.1500 -4.9394
v  2.2280 0.1500 -5.1314
v  2.0562 0.1500 -4.9835
v  2.9073 0.1500 -5.5260
v  3.0424 0.1500 -5.7500
v  2.7705 0.1500 -5.8640
v  2.6549 0.1500 -5.6649
v  3.3153 0.1500 -6.5385
v  3.3621 0.1500 -6.8553
v  3.0590 0.1500 -6.8862
v  3.0122 0.1500 -6.5843
v  0.2457 0.1500 -4.1123
v  0.4906 0.1500 -4.1326
v  0.4597 0.1500 -4.4393
v  0.2303 0.1500 -4.4163
v  -0.0000 0.1500 -4.4000
v  -0.0000 0.1500 -4.1000
# 88 vertices

vn 0.0000 1.0000 -0.0000
vn -0.0000 1.0000 -0.0000
vn -0.0000 1.0000 0.0000
# 3 vertex normals

vt 0.4130 0.4674 0.0000
vt 0.4072 0.4674 0.0000
vt 0.4072 0.1797 0.0000
vt 0.4130 0.1797 0.0000
vt 0.4009 0.2065 0.0000
vt 0.4158 0.2065 0.0000
vt 0.4158 0.2223 0.0000
vt 0.4009 0.2223 0.0000
vt 0.4009 0.2676 0.0000
vt 0.4158 0.2676 0.0000
vt 0.4158 0.2797 0.0000
vt 0.4009 0.2797 0.0000
vt 0.4009 0.3161 0.0000
vt 0.4158 0.3161 0.0000
vt 0.4158 0.3279 0.0000
vt 0.4009 0.3279 0.0000
vt 0.4009 0.3644 0.0000
vt 0.4158 0.3644 0.0000
vt 0.4158 0.3778 0.0000
vt 0.4009 0.3778 0.0000
vt 0.4158 0.4174 0.0000
vt 0.4158 0.4293 0.0000
vt 0.4009 0.4293 0.0000
vt 0.4009 0.4174 0.0000
vt 0.4158 0.4049 0.0000
vt 0.4009 0.4049 0.0000
vt 0.4009 0.3912 0.0000
vt 0.4158 0.3912 0.0000
vt 0.4158 0.3516 0.0000
vt 0.4009 0.3516 0.0000
vt 0.4009 0.3397 0.0000
vt 0.4158 0.3397 0.0000
vt 0.4158 0.3042 0.0000
vt 0.4009 0.3042 0.0000
vt 0.4009 0.2919 0.0000
vt 0.4158 0.2919 0.0000
vt 0.4158 0.2535 0.0000
vt 0.4009 0.2535 0.0000
vt 0.4009 0.2380 0.0000
vt 0.4158 0.2380 0.0000
vt 0.4158 0.4530 0.0000
vt 0.4009 0.4530 0.0000
vt 0.4009 0.4411 0.0000
vt 0.4158 0.4411 0.0000
vt 0.4158 0.4645 0.0000
vt 0.4009 0.4645 0.0000
vt 0.4206 0.2120 0.0000
vt 0.4206 0.2277 0.0000
vt 0.4056 0.2277 0.0000
vt 0.4056 0.2120 0.0000
vt 0.4206 0.2725 0.0000
vt 0.4206 0.2847 0.0000
vt 0.4056 0.2847 0.0000
vt 0.4056 0.2725 0.0000
vt 0.4206 0.3213 0.0000
vt 0.4206 0.3331 0.0000
vt 0.4056 0.3331 0.0000
vt 0.4056 0.3213 0.0000
vt 0.4206 0.3692 0.0000
vt 0.4206 0.3826 0.0000
vt 0.4056 0.3826 0.0000
vt 0.4056 0.3692 0.0000
vt 0.4056 0.4227 0.0000
vt 0.4206 0.4227 0.0000
vt 0.4206 0.4346 0.0000
vt 0.4056 0.4346 0.0000
vt 0.4056 0.4097 0.0000
vt 0.4056 0.3961 0.0000
vt 0.4206 0.3961 0.0000
vt 0.4206 0.4097 0.0000
vt 0.4056 0.3567 0.0000
vt 0.4056 0.3449 0.0000
vt 0.4206 0.3449 0.0000
vt 0.4206 0.3567 0.0000
vt 0.4056 0.3091 0.0000
vt 0.4056 0.2968 0.0000
vt 0.4206 0.2968 0.0000
vt 0.4206 0.3091 0.0000
vt 0.4056 0.2589 0.0000
vt 0.4056 0.2433 0.0000
vt 0.4206 0.2433 0.0000
vt 0.4206 0.2589 0.0000
vt 0.4056 0.4583 0.0000
vt 0.4056 0.4465 0.0000
vt 0.4206 0.4465 0.0000
vt 0.4206 0.4583 0.0000
vt 0.4206 0.4706 0.0000
vt 0.4056 0.4706 0.0000
# 88 texture coords

g Road2TurnsMarkings
usemtl Material__3080
s 1
f 1/1/1 2/2/1 3/3/1 
f 3/3/1 4/4/1 1/1/1 
s 2
f 5/5/1 6/6/1 7/7/1 
f 7/7/1 8/8/1 5/5/1 
f 9/9/1 10/10/1 11/11/1 
f 11/11/1 12/12/1 9/9/1 
f 13/13/1 14/14/1 15/15/1 
f 15/15/1 16/16/1 13/13/1 
f 17/17/1 18/18/1 19/19/1 
f 19/19/1 20/20/1 17/17/1 
f 21/21/1 22/22/2 23/23/2 
f 23/23/2 24/24/1 21/21/1 
f 25/25/1 26/26/1 27/27/1 
f 27/27/1 28/28/1 25/25/1 
f 29/29/1 30/30/1 31/31/1 
f 31/31/1 32/32/1 29/29/1 
f 33/33/1 34/34/1 35/35/1 
f 35/35/1 36/36/1 33/33/1 
f 37/37/1 38/38/1 39/39/1 
f 39/39/1 40/40/1 37/37/1 
f 41/41/1 42/42/1 43/43/2 
f 43/43/2 44/44/2 41/41/1 
f 41/41/1 45/45/1 46/46/1 
f 46/46/1 42/42/1 41/41/1 
f 22/22/2 44/44/2 43/43/2 
f 43/43/2 23/23/2 22/22/2 
f 25/25/1 21/21/1 24/24/1 
f 24/24/1 26/26/1 25/25/1 
f 19/19/1 28/28/1 27/27/1 
f 27/27/1 20/20/1 19/19/1 
f 18/18/1 17/17/1 30/30/1 
f 30/30/1 29/29/1 18/18/1 
f 15/15/1 32/32/1 31/31/1 
f 31/31/1 16/16/1 15/15/1 
f 14/14/1 13/13/1 34/34/1 
f 34/34/1 33/33/1 14/14/1 
f 36/36/1 35/35/1 12/12/1 
f 12/12/1 11/11/1 36/36/1 
f 10/10/1 9/9/1 38/38/1 
f 38/38/1 37/37/1 10/10/1 
f 7/7/1 40/40/1 39/39/1 
f 39/39/1 8/8/1 7/7/1 
f 47/47/1 48/48/3 49/49/3 
f 49/49/3 50/50/1 47/47/1 
f 51/51/1 52/52/1 53/53/1 
f 53/53/1 54/54/1 51/51/1 
f 55/55/1 56/56/1 57/57/1 
f 57/57/1 58/58/1 55/55/1 
f 59/59/1 60/60/1 61/61/1 
f 61/61/1 62/62/1 59/59/1 
f 63/63/1 64/64/1 65/65/3 
f 65/65/3 66/66/3 63/63/1 
f 67/67/1 68/68/1 69/69/1 
f 69/69/1 70/70/1 67/67/1 
f 71/71/1 72/72/1 73/73/1 
f 73/73/1 74/74/1 71/71/1 
f 75/75/1 76/76/1 77/77/1 
f 77/77/1 78/78/1 75/75/1 
f 79/79/1 80/80/3 81/81/3 
f 81/81/3 82/82/1 79/79/1 
f 83/83/1 84/84/3 85/85/3 
f 85/85/3 86/86/1 83/83/1 
f 83/83/1 86/86/1 87/87/1 
f 87/87/1 88/88/1 83/83/1 
f 66/66/3 65/65/3 85/85/3 
f 85/85/3 84/84/3 66/66/3 
f 67/67/1 70/70/1 64/64/1 
f 64/64/1 63/63/1 67/67/1 
f 61/61/1 60/60/1 69/69/1 
f 69/69/1 68/68/1 61/61/1 
f 62/62/1 71/71/1 74/74/1 
f 74/74/1 59/59/1 62/62/1 
f 57/57/1 56/56/1 73/73/1 
f 73/73/1 72/72/1 57/57/1 
f 58/58/1 75/75/1 78/78/1 
f 78/78/1 55/55/1 58/58/1 
f 76/76/1 53/53/1 52/52/1 
f 52/52/1 77/77/1 76/76/1 
f 54/54/1 79/79/1 82/82/1 
f 82/82/1 51/51/1 54/54/1 
f 49/49/3 48/48/3 81/81/3 
f 81/81/3 80/80/3 49/49/3 
# 82 faces

