# 3ds Max Wavefront OBJ Exporter v0.97b - (c)2007 guruware
# File Created: 05.06.2016 16:07:01

mtllib Road2turns.mtl

#
# object Road2Turns
#

v  2.4849 -0.0000 6.8962
v  2.4906 -0.0000 7.5000
v  12.5000 -0.0000 7.5000
v  2.2754 -0.0000 6.3579
v  12.5000 -0.0000 0.2617
v  2.0375 -0.0000 5.9712
v  12.5000 -0.0000 -0.2617
v  2.0375 -0.0000 -5.9712
v  1.6455 -0.0000 5.5489
v  1.6455 -0.0000 -5.5489
v  2.4849 -0.0000 -6.8962
v  12.5000 -0.0000 -7.5000
v  2.4906 -0.0000 -7.5000
v  2.2038 -0.0000 -6.2363
v  0.8642 -0.0000 -5.1027
v  0.0000 -0.0000 -5.0000
v  0.0000 -0.0000 5.0057
v  0.8642 -0.0000 5.1027
v  1.1534 -0.0000 -5.2183
v  1.2938 -0.0000 5.2954
# 20 vertices

vn 0.0000 1.0000 -0.0000
vn -0.0000 1.0000 -0.0000
vn 0.0000 1.0000 0.0000
vn -0.0000 1.0000 0.0000
# 4 vertex normals

vt 0.5899 0.5242 0.0000
vt 0.5902 0.5046 0.0000
vt 0.9154 0.5067 0.0000
vt 0.5829 0.5417 0.0000
vt 0.9140 0.7419 0.0000
vt 0.5751 0.5542 0.0000
vt 0.9138 0.7589 0.0000
vt 0.5727 0.9423 0.0000
vt 0.5623 0.5678 0.0000
vt 0.5600 0.9285 0.0000
vt 0.5870 0.9724 0.0000
vt 0.9124 0.9941 0.0000
vt 0.5871 0.9921 0.0000
vt 0.5780 0.9509 0.0000
vt 0.5347 0.9138 0.0000
vt 0.5067 0.9103 0.0000
vt 0.5137 0.5852 0.0000
vt 0.5368 0.5822 0.0000
vt 0.5441 0.9176 0.0000
vt 0.5508 0.5760 0.0000
# 20 texture coords

g Road2Turns
usemtl Material__3080
s 1
f 1/1/1 2/2/1 3/3/1 
f 4/4/2 1/1/1 3/3/1 
f 4/4/2 3/3/1 5/5/1 
f 6/6/2 4/4/2 5/5/1 
f 5/5/1 7/7/3 8/8/4 
f 8/8/4 6/6/2 5/5/1 
f 9/9/4 6/6/2 8/8/4 
f 8/8/4 10/10/2 9/9/4 
f 11/11/3 12/12/3 13/13/3 
f 14/14/4 12/12/3 11/11/3 
f 7/7/3 12/12/3 14/14/4 
f 8/8/4 7/7/3 14/14/4 
f 15/15/2 16/16/2 17/17/2 
f 17/17/2 18/18/2 15/15/2 
f 19/19/4 15/15/2 18/18/2 
f 18/18/2 20/20/4 19/19/4 
f 19/19/4 20/20/4 9/9/4 
f 9/9/4 10/10/2 19/19/4 
# 18 faces

