# 3ds Max Wavefront OBJ Exporter v0.97b - (c)2007 guruware
# File Created: 05.06.2016 16:06:17

mtllib Road3turns.mtl

#
# object Road3Turns
#

v  2.3391 0.0000 6.4707
v  12.6609 0.0000 6.4707
v  12.9625 0.0000 5.9712
v  2.0375 0.0000 5.9712
v  1.0187 -0.0000 -5.1582
v  1.0187 -0.0000 5.1582
v  1.5322 -0.0000 5.4738
v  1.5322 -0.0000 -5.4738
v  2.3391 0.0000 -6.4707
v  12.6609 0.0000 -6.4707
v  12.5094 0.0000 -7.0493
v  2.4906 0.0000 -7.0493
v  2.0375 0.0000 -5.9712
v  12.9625 0.0000 -5.9712
v  0.0000 -0.0000 -5.0000
v  0.0000 -0.0000 5.0000
v  0.3054 -0.0000 5.0229
v  0.3054 -0.0000 -5.0229
v  1.7552 -0.0000 5.6426
v  1.7552 -0.0000 -5.6426
v  2.4906 0.0000 7.0493
v  2.4906 0.0000 7.5000
v  12.5094 0.0000 7.5000
v  12.5094 0.0000 7.0493
v  2.4906 0.0000 -7.5000
v  12.5094 0.0000 -7.5000
v  13.9813 -0.0000 5.1582
v  13.9813 -0.0000 -5.1582
v  13.4678 -0.0000 -5.4738
v  13.4678 -0.0000 5.4738
v  15.0000 -0.0000 5.0000
v  15.0000 -0.0000 -5.0000
v  14.6946 -0.0000 -5.0229
v  14.6946 -0.0000 5.0229
# 34 vertices

vn 0.0000 1.0000 -0.0000
vn -0.0000 1.0000 -0.0000
vn 0.0000 1.0000 0.0000
vn -0.0000 1.0000 0.0000
# 4 vertex normals

vt 0.5417 0.9182 0.0000
vt 0.5401 0.5824 0.0000
vt 0.5563 0.5725 0.0000
vt 0.5580 0.9280 0.0000
vt 0.9202 0.9595 0.0000
vt 0.5846 0.9610 0.0000
vt 0.5742 0.9443 0.0000
vt 0.9304 0.9427 0.0000
vt 0.9627 0.9163 0.0000
vt 0.9612 0.5805 0.0000
vt 0.9800 0.5853 0.0000
vt 0.9815 0.9113 0.0000
vt 0.9465 0.9262 0.0000
vt 0.9449 0.5707 0.0000
vt 0.9152 0.9926 0.0000
vt 0.5899 0.9941 0.0000
vt 0.5891 0.9842 0.0000
vt 0.9159 0.9827 0.0000
vt 0.5687 0.9371 0.0000
vt 0.9358 0.9354 0.0000
vt 0.5228 0.9134 0.0000
vt 0.5081 0.9134 0.0000
vt 0.5067 0.5875 0.0000
vt 0.5213 0.5874 0.0000
vt 0.9962 0.9112 0.0000
vt 0.9947 0.5853 0.0000
vt 0.5826 0.5392 0.0000
vt 0.9183 0.5377 0.0000
vt 0.9286 0.5544 0.0000
vt 0.5724 0.5560 0.0000
vt 0.5876 0.5061 0.0000
vt 0.9130 0.5046 0.0000
vt 0.9138 0.5145 0.0000
vt 0.5869 0.5160 0.0000
# 34 texture coords

g Road3Turns
usemtl Material__3080
s 1
f 1/1/1 2/2/1 3/3/1 
f 3/3/1 4/4/1 1/1/1 
f 5/5/2 6/6/2 7/7/2 
f 7/7/2 8/8/2 5/5/2 
f 9/9/3 10/10/3 11/11/3 
f 11/11/3 12/12/3 9/9/3 
f 13/13/3 14/14/3 10/10/3 
f 10/10/3 9/9/3 13/13/3 
f 15/15/2 16/16/2 17/17/2 
f 17/17/2 18/18/2 15/15/2 
f 18/18/2 17/17/2 6/6/2 
f 6/6/2 5/5/2 18/18/2 
f 8/8/2 7/7/2 19/19/2 
f 19/19/2 20/20/4 8/8/2 
s off
f 21/21/1 22/22/1 23/23/1 
f 23/23/1 24/24/1 21/21/1 
f 25/25/1 12/12/1 11/11/1 
f 11/11/1 26/26/1 25/25/1 
s 1
f 2/2/1 1/1/1 21/21/1 
f 21/21/1 24/24/1 2/2/1 
f 27/27/1 28/28/1 29/29/1 
f 29/29/1 30/30/1 27/27/1 
f 14/14/3 13/13/3 20/20/4 
f 4/4/1 3/3/1 30/30/1 
f 19/19/2 4/4/1 30/30/1 
f 20/20/4 19/19/2 30/30/1 
f 14/14/3 20/20/4 30/30/1 
f 14/14/3 30/30/1 29/29/1 
f 31/31/1 32/32/1 33/33/1 
f 33/33/1 34/34/1 31/31/1 
f 34/34/1 33/33/1 28/28/1 
f 28/28/1 27/27/1 34/34/1 
# 32 faces

