# 3ds Max Wavefront OBJ Exporter v0.97b - (c)2007 guruware
# File Created: 05.06.2016 16:44:13

mtllib Road3TurnsMarkings.mtl

#
# object Road3TurnsMarkings
#

v  3.1000 0.1500 7.5000
v  3.4000 0.1500 7.5000
v  3.3860 0.1500 7.1772
v  3.0841 0.1500 7.1926
v  2.9389 0.1500 6.2875
v  3.2389 0.1500 6.2275
v  3.1552 0.1500 5.9831
v  2.8669 0.1500 6.0711
v  2.5201 0.1500 5.4767
v  2.7508 0.1500 5.3146
v  2.5987 0.1500 5.1194
v  2.3826 0.1500 5.2966
v  1.8666 0.1500 4.8571
v  2.0373 0.1500 4.6349
v  1.7932 0.1500 4.4852
v  1.6477 0.1500 4.7328
v  0.9749 0.1500 4.2109
v  0.7341 0.1500 4.1639
v  0.6882 0.1500 4.4725
v  0.9149 0.1500 4.5165
v  1.2591 0.1500 4.2739
v  1.1683 0.1500 4.5657
v  1.4143 0.1500 4.6371
v  1.5331 0.1500 4.3652
v  2.2422 0.1500 4.7769
v  2.0562 0.1500 4.9835
v  2.2280 0.1500 5.1314
v  2.4294 0.1500 4.9394
v  2.9073 0.1500 5.5260
v  2.6549 0.1500 5.6649
v  2.7705 0.1500 5.8640
v  3.0424 0.1500 5.7500
v  3.3153 0.1500 6.5385
v  3.0122 0.1500 6.5843
v  3.0590 0.1500 6.8862
v  3.3621 0.1500 6.8553
v  0.2457 0.1500 4.1123
v  0.2303 0.1500 4.4163
v  0.4597 0.1500 4.4393
v  0.4906 0.1500 4.1326
v  0.0000 0.1500 4.1000
v  0.0000 0.1500 4.4000
v  11.9000 0.1500 7.5000
v  11.9159 0.1500 7.1926
v  11.6140 0.1500 7.1772
v  11.6000 0.1500 7.5000
v  12.0611 0.1500 6.2875
v  12.1331 0.1500 6.0711
v  11.8448 0.1500 5.9831
v  11.7611 0.1500 6.2275
v  12.4799 0.1500 5.4767
v  12.6174 0.1500 5.2966
v  12.4013 0.1500 5.1194
v  12.2492 0.1500 5.3146
v  13.1334 0.1500 4.8571
v  13.3523 0.1500 4.7328
v  13.2068 0.1500 4.4852
v  12.9627 0.1500 4.6349
v  14.0251 0.1500 4.2109
v  14.0851 0.1500 4.5165
v  14.3118 0.1500 4.4725
v  14.2659 0.1500 4.1639
v  13.7409 0.1500 4.2739
v  13.4669 0.1500 4.3652
v  13.5857 0.1500 4.6371
v  13.8317 0.1500 4.5657
v  12.7578 0.1500 4.7769
v  12.5706 0.1500 4.9394
v  12.7720 0.1500 5.1314
v  12.9438 0.1500 4.9835
v  12.0927 0.1500 5.5260
v  11.9576 0.1500 5.7500
v  12.2295 0.1500 5.8640
v  12.3451 0.1500 5.6649
v  11.6847 0.1500 6.5385
v  11.6379 0.1500 6.8553
v  11.9410 0.1500 6.8862
v  11.9878 0.1500 6.5843
v  14.7543 0.1500 4.1123
v  14.5094 0.1500 4.1326
v  14.5403 0.1500 4.4393
v  14.7697 0.1500 4.4163
v  15.0000 0.1500 4.4000
v  15.0000 0.1500 4.1000
v  3.1000 0.1500 -7.5000
v  3.0841 0.1500 -7.1926
v  3.3860 0.1500 -7.1772
v  3.4000 0.1500 -7.5000
v  2.9389 0.1500 -6.2875
v  2.8669 0.1500 -6.0711
v  3.1552 0.1500 -5.9831
v  3.2389 0.1500 -6.2275
v  2.5201 0.1500 -5.4767
v  2.3826 0.1500 -5.2966
v  2.5987 0.1500 -5.1194
v  2.7508 0.1500 -5.3146
v  1.8666 0.1500 -4.8571
v  1.6477 0.1500 -4.7328
v  1.7932 0.1500 -4.4852
v  2.0373 0.1500 -4.6349
v  0.9749 0.1500 -4.2109
v  0.9149 0.1500 -4.5165
v  0.6882 0.1500 -4.4725
v  0.7341 0.1500 -4.1639
v  1.2591 0.1500 -4.2739
v  1.5331 0.1500 -4.3652
v  1.4143 0.1500 -4.6371
v  1.1683 0.1500 -4.5657
v  2.2422 0.1500 -4.7769
v  2.4294 0.1500 -4.9394
v  2.2280 0.1500 -5.1314
v  2.0562 0.1500 -4.9835
v  2.9073 0.1500 -5.5260
v  3.0424 0.1500 -5.7500
v  2.7705 0.1500 -5.8640
v  2.6549 0.1500 -5.6649
v  3.3153 0.1500 -6.5385
v  3.3621 0.1500 -6.8553
v  3.0590 0.1500 -6.8862
v  3.0122 0.1500 -6.5843
v  0.2457 0.1500 -4.1123
v  0.4906 0.1500 -4.1326
v  0.4597 0.1500 -4.4393
v  0.2303 0.1500 -4.4163
v  0.0000 0.1500 -4.4000
v  0.0000 0.1500 -4.1000
v  11.9000 0.1500 -7.5000
v  11.6000 0.1500 -7.5000
v  11.6140 0.1500 -7.1772
v  11.9159 0.1500 -7.1926
v  12.0611 0.1500 -6.2875
v  11.7611 0.1500 -6.2275
v  11.8448 0.1500 -5.9831
v  12.1331 0.1500 -6.0711
v  12.4799 0.1500 -5.4767
v  12.2492 0.1500 -5.3146
v  12.4013 0.1500 -5.1194
v  12.6174 0.1500 -5.2966
v  13.1334 0.1500 -4.8571
v  12.9627 0.1500 -4.6349
v  13.2068 0.1500 -4.4852
v  13.3523 0.1500 -4.7328
v  14.0251 0.1500 -4.2109
v  14.2659 0.1500 -4.1639
v  14.3118 0.1500 -4.4725
v  14.0851 0.1500 -4.5165
v  13.7409 0.1500 -4.2739
v  13.8317 0.1500 -4.5657
v  13.5857 0.1500 -4.6371
v  13.4669 0.1500 -4.3652
v  12.7578 0.1500 -4.7769
v  12.9438 0.1500 -4.9835
v  12.7720 0.1500 -5.1314
v  12.5706 0.1500 -4.9394
v  12.0927 0.1500 -5.5260
v  12.3451 0.1500 -5.6649
v  12.2295 0.1500 -5.8640
v  11.9576 0.1500 -5.7500
v  11.6847 0.1500 -6.5385
v  11.9878 0.1500 -6.5843
v  11.9410 0.1500 -6.8862
v  11.6379 0.1500 -6.8553
v  14.7543 0.1500 -4.1123
v  14.7697 0.1500 -4.4163
v  14.5403 0.1500 -4.4393
v  14.5094 0.1500 -4.1326
v  15.0000 0.1500 -4.1000
v  15.0000 0.1500 -4.4000
# 168 vertices

vn 0.0000 1.0000 -0.0000
vn -0.0000 1.0000 -0.0000
vn -0.0000 1.0000 0.0000
vn 0.0000 1.0000 0.0000
# 4 vertex normals

vt 0.4018 0.2026 0.0000
vt 0.4174 0.2026 0.0000
vt 0.4174 0.2192 0.0000
vt 0.4018 0.2192 0.0000
vt 0.4018 0.2667 0.0000
vt 0.4174 0.2667 0.0000
vt 0.4174 0.2794 0.0000
vt 0.4018 0.2794 0.0000
vt 0.4018 0.3176 0.0000
vt 0.4174 0.3176 0.0000
vt 0.4174 0.3300 0.0000
vt 0.4018 0.3300 0.0000
vt 0.4018 0.3683 0.0000
vt 0.4174 0.3683 0.0000
vt 0.4174 0.3824 0.0000
vt 0.4018 0.3824 0.0000
vt 0.4174 0.4240 0.0000
vt 0.4174 0.4364 0.0000
vt 0.4018 0.4364 0.0000
vt 0.4018 0.4240 0.0000
vt 0.4174 0.4108 0.0000
vt 0.4018 0.4108 0.0000
vt 0.4018 0.3965 0.0000
vt 0.4174 0.3965 0.0000
vt 0.4174 0.3549 0.0000
vt 0.4018 0.3549 0.0000
vt 0.4018 0.3424 0.0000
vt 0.4174 0.3424 0.0000
vt 0.4174 0.3051 0.0000
vt 0.4018 0.3051 0.0000
vt 0.4018 0.2922 0.0000
vt 0.4174 0.2922 0.0000
vt 0.4174 0.2519 0.0000
vt 0.4018 0.2519 0.0000
vt 0.4018 0.2356 0.0000
vt 0.4174 0.2356 0.0000
vt 0.4174 0.4613 0.0000
vt 0.4018 0.4613 0.0000
vt 0.4018 0.4489 0.0000
vt 0.4174 0.4489 0.0000
vt 0.4174 0.4734 0.0000
vt 0.4018 0.4734 0.0000
vt 0.4056 0.4816 0.0000
vt 0.4056 0.4687 0.0000
vt 0.4206 0.4687 0.0000
vt 0.4206 0.4816 0.0000
vt 0.4056 0.4218 0.0000
vt 0.4056 0.4081 0.0000
vt 0.4206 0.4081 0.0000
vt 0.4206 0.4218 0.0000
vt 0.4056 0.3715 0.0000
vt 0.4056 0.3593 0.0000
vt 0.4206 0.3593 0.0000
vt 0.4206 0.3715 0.0000
vt 0.4056 0.3239 0.0000
vt 0.4056 0.3114 0.0000
vt 0.4206 0.3114 0.0000
vt 0.4206 0.3239 0.0000
vt 0.4206 0.2709 0.0000
vt 0.4056 0.2709 0.0000
vt 0.4056 0.2579 0.0000
vt 0.4206 0.2579 0.0000
vt 0.4206 0.2845 0.0000
vt 0.4206 0.2980 0.0000
vt 0.4056 0.2980 0.0000
vt 0.4056 0.2845 0.0000
vt 0.4206 0.3357 0.0000
vt 0.4206 0.3475 0.0000
vt 0.4056 0.3475 0.0000
vt 0.4056 0.3357 0.0000
vt 0.4206 0.3838 0.0000
vt 0.4206 0.3960 0.0000
vt 0.4056 0.3960 0.0000
vt 0.4056 0.3838 0.0000
vt 0.4206 0.4373 0.0000
vt 0.4206 0.4530 0.0000
vt 0.4056 0.4530 0.0000
vt 0.4056 0.4373 0.0000
vt 0.4206 0.2342 0.0000
vt 0.4206 0.2460 0.0000
vt 0.4056 0.2460 0.0000
vt 0.4056 0.2342 0.0000
vt 0.4056 0.2222 0.0000
vt 0.4206 0.2222 0.0000
vt 0.4270 0.1976 0.0000
vt 0.4270 0.2141 0.0000
vt 0.4114 0.2141 0.0000
vt 0.4114 0.1976 0.0000
vt 0.4270 0.2612 0.0000
vt 0.4270 0.2739 0.0000
vt 0.4114 0.2739 0.0000
vt 0.4114 0.2612 0.0000
vt 0.4270 0.3124 0.0000
vt 0.4270 0.3248 0.0000
vt 0.4114 0.3248 0.0000
vt 0.4114 0.3124 0.0000
vt 0.4270 0.3627 0.0000
vt 0.4270 0.3768 0.0000
vt 0.4114 0.3768 0.0000
vt 0.4114 0.3627 0.0000
vt 0.4114 0.4189 0.0000
vt 0.4270 0.4189 0.0000
vt 0.4270 0.4314 0.0000
vt 0.4114 0.4314 0.0000
vt 0.4114 0.4053 0.0000
vt 0.4114 0.3910 0.0000
vt 0.4270 0.3910 0.0000
vt 0.4270 0.4053 0.0000
vt 0.4114 0.3496 0.0000
vt 0.4114 0.3372 0.0000
vt 0.4270 0.3372 0.0000
vt 0.4270 0.3496 0.0000
vt 0.4114 0.2996 0.0000
vt 0.4114 0.2867 0.0000
vt 0.4270 0.2867 0.0000
vt 0.4270 0.2996 0.0000
vt 0.4114 0.2469 0.0000
vt 0.4114 0.2305 0.0000
vt 0.4270 0.2305 0.0000
vt 0.4270 0.2469 0.0000
vt 0.4114 0.4563 0.0000
vt 0.4114 0.4438 0.0000
vt 0.4270 0.4438 0.0000
vt 0.4270 0.4563 0.0000
vt 0.4270 0.4691 0.0000
vt 0.4114 0.4691 0.0000
vt 0.4227 0.4706 0.0000
vt 0.4070 0.4706 0.0000
vt 0.4070 0.4537 0.0000
vt 0.4227 0.4537 0.0000
vt 0.4227 0.4044 0.0000
vt 0.4070 0.4044 0.0000
vt 0.4070 0.3897 0.0000
vt 0.4227 0.3897 0.0000
vt 0.4227 0.3512 0.0000
vt 0.4070 0.3512 0.0000
vt 0.4070 0.3387 0.0000
vt 0.4227 0.3387 0.0000
vt 0.4227 0.3015 0.0000
vt 0.4070 0.3015 0.0000
vt 0.4070 0.2881 0.0000
vt 0.4227 0.2881 0.0000
vt 0.4070 0.2455 0.0000
vt 0.4070 0.2324 0.0000
vt 0.4227 0.2324 0.0000
vt 0.4227 0.2455 0.0000
vt 0.4070 0.2598 0.0000
vt 0.4227 0.2598 0.0000
vt 0.4227 0.2740 0.0000
vt 0.4070 0.2740 0.0000
vt 0.4070 0.3139 0.0000
vt 0.4227 0.3139 0.0000
vt 0.4227 0.3263 0.0000
vt 0.4070 0.3263 0.0000
vt 0.4070 0.3641 0.0000
vt 0.4227 0.3641 0.0000
vt 0.4227 0.3769 0.0000
vt 0.4070 0.3769 0.0000
vt 0.4070 0.4208 0.0000
vt 0.4227 0.4208 0.0000
vt 0.4227 0.4372 0.0000
vt 0.4070 0.4372 0.0000
vt 0.4070 0.2075 0.0000
vt 0.4227 0.2075 0.0000
vt 0.4227 0.2199 0.0000
vt 0.4070 0.2199 0.0000
vt 0.4070 0.1951 0.0000
vt 0.4227 0.1951 0.0000
# 168 texture coords

g Road3TurnsMarkings
usemtl Material__3080
s 2
f 1/1/1 2/2/1 3/3/1 
f 3/3/1 4/4/1 1/1/1 
f 5/5/1 6/6/1 7/7/1 
f 7/7/1 8/8/1 5/5/1 
f 9/9/1 10/10/1 11/11/1 
f 11/11/1 12/12/1 9/9/1 
f 13/13/1 14/14/1 15/15/1 
f 15/15/1 16/16/1 13/13/1 
f 17/17/1 18/18/2 19/19/2 
f 19/19/2 20/20/1 17/17/1 
f 21/21/1 22/22/1 23/23/1 
f 23/23/1 24/24/1 21/21/1 
f 25/25/1 26/26/1 27/27/1 
f 27/27/1 28/28/1 25/25/1 
f 29/29/1 30/30/1 31/31/1 
f 31/31/1 32/32/1 29/29/1 
f 33/33/1 34/34/1 35/35/1 
f 35/35/1 36/36/1 33/33/1 
f 37/37/2 38/38/2 39/39/2 
f 39/39/2 40/40/2 37/37/2 
f 37/37/2 41/41/1 42/42/1 
f 42/42/1 38/38/2 37/37/2 
f 18/18/2 40/40/2 39/39/2 
f 39/39/2 19/19/2 18/18/2 
f 21/21/1 17/17/1 20/20/1 
f 20/20/1 22/22/1 21/21/1 
f 15/15/1 24/24/1 23/23/1 
f 23/23/1 16/16/1 15/15/1 
f 14/14/1 13/13/1 26/26/1 
f 26/26/1 25/25/1 14/14/1 
f 11/11/1 28/28/1 27/27/1 
f 27/27/1 12/12/1 11/11/1 
f 10/10/1 9/9/1 30/30/1 
f 30/30/1 29/29/1 10/10/1 
f 32/32/1 31/31/1 8/8/1 
f 8/8/1 7/7/1 32/32/1 
f 6/6/1 5/5/1 34/34/1 
f 34/34/1 33/33/1 6/6/1 
f 3/3/1 36/36/1 35/35/1 
f 35/35/1 4/4/1 3/3/1 
f 43/43/1 44/44/1 45/45/1 
f 45/45/1 46/46/1 43/43/1 
f 47/47/1 48/48/1 49/49/1 
f 49/49/1 50/50/1 47/47/1 
f 51/51/1 52/52/1 53/53/1 
f 53/53/1 54/54/1 51/51/1 
f 55/55/1 56/56/1 57/57/1 
f 57/57/1 58/58/1 55/55/1 
f 59/59/1 60/60/1 61/61/1 
f 61/61/1 62/62/1 59/59/1 
f 63/63/1 64/64/1 65/65/1 
f 65/65/1 66/66/1 63/63/1 
f 67/67/1 68/68/1 69/69/1 
f 69/69/1 70/70/1 67/67/1 
f 71/71/1 72/72/1 73/73/1 
f 73/73/1 74/74/1 71/71/1 
f 75/75/1 76/76/1 77/77/1 
f 77/77/1 78/78/1 75/75/1 
f 79/79/1 80/80/1 81/81/1 
f 81/81/1 82/82/1 79/79/1 
f 79/79/1 82/82/1 83/83/1 
f 83/83/1 84/84/1 79/79/1 
f 62/62/1 61/61/1 81/81/1 
f 81/81/1 80/80/1 62/62/1 
f 63/63/1 66/66/1 60/60/1 
f 60/60/1 59/59/1 63/63/1 
f 57/57/1 56/56/1 65/65/1 
f 65/65/1 64/64/1 57/57/1 
f 58/58/1 67/67/1 70/70/1 
f 70/70/1 55/55/1 58/58/1 
f 53/53/1 52/52/1 69/69/1 
f 69/69/1 68/68/1 53/53/1 
f 54/54/1 71/71/1 74/74/1 
f 74/74/1 51/51/1 54/54/1 
f 72/72/1 49/49/1 48/48/1 
f 48/48/1 73/73/1 72/72/1 
f 50/50/1 75/75/1 78/78/1 
f 78/78/1 47/47/1 50/50/1 
f 45/45/1 44/44/1 77/77/1 
f 77/77/1 76/76/1 45/45/1 
f 85/85/1 86/86/3 87/87/3 
f 87/87/3 88/88/1 85/85/1 
f 89/89/1 90/90/1 91/91/1 
f 91/91/1 92/92/1 89/89/1 
f 93/93/1 94/94/1 95/95/1 
f 95/95/1 96/96/1 93/93/1 
f 97/97/1 98/98/1 99/99/1 
f 99/99/1 100/100/1 97/97/1 
f 101/101/1 102/102/1 103/103/3 
f 103/103/3 104/104/3 101/101/1 
f 105/105/1 106/106/1 107/107/1 
f 107/107/1 108/108/1 105/105/1 
f 109/109/1 110/110/1 111/111/1 
f 111/111/1 112/112/1 109/109/1 
f 113/113/1 114/114/1 115/115/1 
f 115/115/1 116/116/1 113/113/1 
f 117/117/1 118/118/3 119/119/3 
f 119/119/3 120/120/1 117/117/1 
f 121/121/3 122/122/3 123/123/3 
f 123/123/3 124/124/3 121/121/3 
f 121/121/3 124/124/3 125/125/1 
f 125/125/1 126/126/1 121/121/3 
f 104/104/3 103/103/3 123/123/3 
f 123/123/3 122/122/3 104/104/3 
f 105/105/1 108/108/1 102/102/1 
f 102/102/1 101/101/1 105/105/1 
f 99/99/1 98/98/1 107/107/1 
f 107/107/1 106/106/1 99/99/1 
f 100/100/1 109/109/1 112/112/1 
f 112/112/1 97/97/1 100/100/1 
f 95/95/1 94/94/1 111/111/1 
f 111/111/1 110/110/1 95/95/1 
f 96/96/1 113/113/1 116/116/1 
f 116/116/1 93/93/1 96/96/1 
f 114/114/1 91/91/1 90/90/1 
f 90/90/1 115/115/1 114/114/1 
f 92/92/1 117/117/1 120/120/1 
f 120/120/1 89/89/1 92/92/1 
f 87/87/3 86/86/3 119/119/3 
f 119/119/3 118/118/3 87/87/3 
f 127/127/1 128/128/1 129/129/4 
f 129/129/4 130/130/4 127/127/1 
f 131/131/1 132/132/1 133/133/1 
f 133/133/1 134/134/1 131/131/1 
f 135/135/1 136/136/1 137/137/1 
f 137/137/1 138/138/1 135/135/1 
f 139/139/1 140/140/1 141/141/1 
f 141/141/1 142/142/1 139/139/1 
f 143/143/1 144/144/4 145/145/4 
f 145/145/4 146/146/1 143/143/1 
f 147/147/1 148/148/1 149/149/1 
f 149/149/1 150/150/1 147/147/1 
f 151/151/1 152/152/1 153/153/1 
f 153/153/1 154/154/1 151/151/1 
f 155/155/1 156/156/1 157/157/1 
f 157/157/1 158/158/1 155/155/1 
f 159/159/1 160/160/1 161/161/4 
f 161/161/4 162/162/4 159/159/1 
f 163/163/4 164/164/4 165/165/4 
f 165/165/4 166/166/4 163/163/4 
f 163/163/4 167/167/1 168/168/1 
f 168/168/1 164/164/4 163/163/4 
f 144/144/4 166/166/4 165/165/4 
f 165/165/4 145/145/4 144/144/4 
f 147/147/1 143/143/1 146/146/1 
f 146/146/1 148/148/1 147/147/1 
f 141/141/1 150/150/1 149/149/1 
f 149/149/1 142/142/1 141/141/1 
f 140/140/1 139/139/1 152/152/1 
f 152/152/1 151/151/1 140/140/1 
f 137/137/1 154/154/1 153/153/1 
f 153/153/1 138/138/1 137/137/1 
f 136/136/1 135/135/1 156/156/1 
f 156/156/1 155/155/1 136/136/1 
f 158/158/1 157/157/1 134/134/1 
f 134/134/1 133/133/1 158/158/1 
f 132/132/1 131/131/1 160/160/1 
f 160/160/1 159/159/1 132/132/1 
f 129/129/4 162/162/4 161/161/4 
f 161/161/4 130/130/4 129/129/4 
# 160 faces

