# 3ds Max Wavefront OBJ Exporter v0.97b - (c)2007 guruware
# File Created: 05.06.2016 16:06:48

mtllib Road1turns.mtl

#
# object Road1Turns
#

v  1.9633 0.0000 5.8670
v  12.5000 0.0000 -5.0013
v  1.5322 -0.0000 5.4738
v  2.3854 0.0000 6.5933
v  2.4906 0.0000 7.5000
v  12.5000 0.0000 7.5000
v  2.1223 0.0000 6.1072
v  0.0000 -0.0000 5.0000
v  0.3054 -0.0000 5.0229
v  -0.0000 -0.0000 -5.0013
v  1.0187 -0.0000 5.1582
# 11 vertices

vn -0.0000 1.0000 -0.0000
vn 0.0000 1.0000 -0.0000
vn -0.0000 1.0000 0.0000
# 3 vertex normals

vt 0.5705 0.9169 0.0000
vt 0.9961 0.5051 0.0000
vt 0.5859 0.9338 0.0000
vt 0.5421 0.9004 0.0000
vt 0.5067 0.8962 0.0000
vt 0.5070 0.5046 0.0000
vt 0.5611 0.9107 0.0000
vt 0.6044 0.9937 0.0000
vt 0.6035 0.9818 0.0000
vt 0.9957 0.9941 0.0000
vt 0.5982 0.9539 0.0000
# 11 texture coords

g Road1Turns
usemtl Material__3080
s 1
f 1/1/1 2/2/1 3/3/1 
f 4/4/1 5/5/2 6/6/2 
f 4/4/1 6/6/2 2/2/1 
f 2/2/1 7/7/1 4/4/1 
f 1/1/1 7/7/1 2/2/1 
f 8/8/3 9/9/3 10/10/3 
f 10/10/3 9/9/3 11/11/1 
f 11/11/1 2/2/1 10/10/3 
f 2/2/1 11/11/1 3/3/1 
# 9 faces

