# 3ds Max Wavefront OBJ Exporter v0.97b - (c)2007 guruware
# File Created: 05.06.2016 16:08:08

mtllib SideWalkCornerBig.mtl

#
# object SideWalkCornerBig
#

v  15.0000 0.1966 -2.5700
v  7.5000 0.1966 -2.5700
v  7.5000 0.1966 -2.4324
v  15.0000 0.1966 -2.4324
v  15.0000 0.1466 -2.4224
v  7.5000 0.1466 -2.4224
v  7.5000 0.1466 -0.0000
v  15.0000 0.1466 -0.0000
v  15.0000 0.1866 -2.4224
v  7.5000 0.1866 -2.4224
v  7.5000 0.1866 -2.5800
v  15.0000 0.1866 -2.5800
v  15.0000 0.0000 -2.5800
v  7.5000 0.0000 -2.5800
v  2.5700 0.1966 -2.5700
v  2.4324 0.1966 -2.4324
v  2.4224 0.1466 -2.4224
v  -0.0000 0.1466 -0.0000
v  2.4224 0.1866 -2.4224
v  2.5800 0.1866 -2.5800
v  2.5800 0.0000 -2.5800
v  2.5700 0.1966 -7.5000
v  2.4324 0.1966 -7.5000
v  2.4224 0.1466 -7.5000
v  -0.0000 0.1466 -7.5000
v  2.4224 0.1866 -7.5000
v  2.5800 0.1866 -7.5000
v  2.5800 0.0000 -7.5000
v  2.5700 0.1966 -15.0000
v  2.4324 0.1966 -15.0000
v  2.4224 0.1466 -15.0000
v  -0.0000 0.1466 -15.0000
v  2.4224 0.1866 -15.0000
v  2.5800 0.1866 -15.0000
v  2.5800 0.0000 -15.0000
# 35 vertices

vn 0.0000 0.9977 -0.0676
vn 0.0000 0.9977 0.0676
vn 0.0000 0.9999 0.0165
vn 0.0000 1.0000 -0.0000
vn 0.0000 0.1961 0.9806
vn 0.0000 0.0508 -0.9987
vn 0.0000 0.0000 -1.0000
vn -0.0000 0.9978 -0.0658
vn 0.0141 0.9998 -0.0141
vn -0.0844 0.9928 0.0846
vn -0.0000 0.9999 0.0119
vn -0.0046 1.0000 0.0046
vn -0.0000 0.1958 0.9806
vn -0.6950 0.1833 0.6952
vn 0.7037 0.0978 -0.7038
vn -0.0000 0.0508 -0.9987
vn -0.0000 0.0000 -1.0000
vn 0.7071 0.0000 -0.7071
vn 0.0676 0.9977 -0.0000
vn -0.0695 0.9976 -0.0000
vn -0.0165 0.9999 -0.0000
vn -0.9806 0.1961 -0.0000
vn 0.9987 0.0509 0.0000
vn 1.0000 0.0000 0.0000
# 24 vertex normals

vt 0.4979 0.6842 0.0000
vt 0.0020 0.6842 0.0000
vt 0.0020 0.6751 0.0000
vt 0.4979 0.6751 0.0000
vt 0.4996 0.8641 0.0000
vt 0.0068 0.8641 0.0000
vt 0.0068 0.7039 0.0000
vt 0.4996 0.7039 0.0000
vt 0.4979 0.6742 0.0000
vt 0.0020 0.6742 0.0000
vt 0.0020 0.6715 0.0000
vt 0.4979 0.6715 0.0000
vt 0.0020 0.6851 0.0000
vt 0.4979 0.6851 0.0000
vt 0.4979 0.6975 0.0000
vt 0.0020 0.6975 0.0000
vt 0.3491 0.8920 0.0000
vt 0.0231 0.8920 0.0000
vt 0.0140 0.8829 0.0000
vt 0.3491 0.8829 0.0000
vt 0.4979 0.1622 0.0000
vt 0.1622 0.1622 0.0000
vt 0.0020 0.0020 0.0000
vt 0.4979 0.0020 0.0000
vt 0.3491 0.8819 0.0000
vt 0.0133 0.8819 0.0000
vt 0.0133 0.8793 0.0000
vt 0.3491 0.8793 0.0000
vt 0.0238 0.8929 0.0000
vt 0.3491 0.8929 0.0000
vt 0.3491 0.9052 0.0000
vt 0.0238 0.9052 0.0000
vt 0.3393 0.9383 0.0000
vt 0.0133 0.9383 0.0000
vt 0.0133 0.9292 0.0000
vt 0.3484 0.9292 0.0000
vt 0.1622 0.4979 0.0000
vt 0.0020 0.4979 0.0000
vt 0.3491 0.9283 0.0000
vt 0.0133 0.9283 0.0000
vt 0.0133 0.9257 0.0000
vt 0.3491 0.9257 0.0000
vt 0.0133 0.9393 0.0000
vt 0.3387 0.9393 0.0000
vt 0.3387 0.9516 0.0000
vt 0.0133 0.9516 0.0000
# 46 texture coords

g SideWalkCornerBig
usemtl Material__3080
s 1
f 1/1/1 2/2/1 3/3/2 
f 3/3/2 4/4/2 1/1/1 
f 5/5/3 6/6/3 7/7/4 
f 7/7/4 8/8/4 5/5/3 
f 9/9/5 10/10/5 6/11/3 
f 6/11/3 5/12/3 9/9/5 
f 11/13/6 12/14/6 13/15/7 
f 13/15/7 14/16/7 11/13/6 
f 9/9/5 4/4/2 3/3/2 
f 3/3/2 10/10/5 9/9/5 
f 11/13/6 2/2/1 1/1/1 
f 1/1/1 12/14/6 11/13/6 
f 2/17/8 15/18/9 16/19/10 
f 16/19/10 3/20/2 2/17/8 
f 6/21/11 17/22/12 18/23/4 
f 18/23/4 7/24/4 6/21/11 
f 10/25/13 19/26/14 17/27/12 
f 17/27/12 6/28/11 10/25/13 
f 20/29/15 11/30/16 14/31/17 
f 14/31/17 21/32/18 20/29/15 
f 10/25/13 3/20/2 16/19/10 
f 16/19/10 19/26/14 10/25/13 
f 20/29/15 15/18/9 2/17/8 
f 2/17/8 11/30/16 20/29/15 
f 15/33/9 22/34/19 23/35/20 
f 23/35/20 16/36/10 15/33/9 
f 17/22/12 24/37/21 25/38/4 
f 25/38/4 18/23/4 17/22/12 
f 19/39/14 26/40/22 24/41/21 
f 24/41/21 17/42/12 19/39/14 
f 27/43/23 20/44/15 21/45/18 
f 21/45/18 28/46/24 27/43/23 
f 19/39/14 16/36/10 23/35/20 
f 23/35/20 26/40/22 19/39/14 
f 27/43/23 22/34/19 15/33/9 
f 15/33/9 20/44/15 27/43/23 
f 22/1/1 29/2/1 30/3/2 
f 30/3/2 23/4/2 22/1/1 
f 24/5/3 31/6/3 32/7/4 
f 32/7/4 25/8/4 24/5/3 
f 26/9/5 33/10/5 31/11/3 
f 31/11/3 24/12/3 26/9/5 
f 34/13/6 27/14/6 28/15/7 
f 28/15/7 35/16/7 34/13/6 
f 26/9/5 23/4/2 30/3/2 
f 30/3/2 33/10/5 26/9/5 
f 34/13/6 29/2/1 22/1/1 
f 22/1/1 27/14/6 34/13/6 
# 48 faces

