# 3ds Max Wavefront OBJ Exporter v0.97b - (c)2007 guruware
# File Created: 05.06.2016 16:08:21

mtllib SideWalkCorner.mtl

#
# object SideWalkCorner
#

v  1.6887 0.1966 -1.9401
v  1.5986 0.1966 -1.8362
v  1.8449 0.1966 -1.5899
v  1.9489 0.1966 -1.6800
v  0.0000 0.1466 -0.0000
v  1.8373 0.1466 -1.5833
v  1.5921 0.1466 -1.8286
v  1.5921 0.1866 -1.8286
v  1.8373 0.1866 -1.5833
v  1.9564 0.1866 -1.6865
v  1.9564 0.0000 -1.6865
v  1.6953 0.0000 -1.9477
v  1.6953 0.1866 -1.9477
v  2.5525 0.1966 -0.3583
v  2.4163 0.1966 -0.3387
v  2.4324 0.1966 -0.0000
v  2.5700 0.1966 -0.0000
v  2.4743 0.1966 -0.7178
v  2.3423 0.1966 -0.6790
v  2.3457 0.1966 -1.0625
v  2.2205 0.1966 -1.0054
v  2.1694 0.1966 -1.3854
v  2.0536 0.1966 -1.3111
v  0.3474 0.1966 -2.4076
v  0.3670 0.1966 -2.5437
v  0.0000 0.1966 -2.5700
v  0.0000 0.1966 -2.4324
v  0.6878 0.1966 -2.3335
v  0.7265 0.1966 -2.4655
v  1.0141 0.1966 -2.2118
v  1.0712 0.1966 -2.3370
v  1.3198 0.1966 -2.0449
v  1.3942 0.1966 -2.1606
v  2.4312 0.1466 -0.0000
v  2.4064 0.1466 -0.3373
v  2.3327 0.1466 -0.6762
v  2.2115 0.1466 -1.0012
v  2.0452 0.1466 -1.3057
v  0.3460 0.1466 -2.3977
v  0.0000 0.1466 -2.4224
v  0.6849 0.1466 -2.3240
v  1.0099 0.1466 -2.2027
v  1.3144 0.1466 -2.0365
v  2.4064 0.1866 -0.3373
v  2.4224 0.1866 -0.0000
v  2.3327 0.1866 -0.6762
v  2.2115 0.1866 -1.0012
v  2.0452 0.1866 -1.3057
v  0.3460 0.1866 -2.3977
v  0.0000 0.1866 -2.4224
v  0.6849 0.1866 -2.3240
v  1.0099 0.1866 -2.2027
v  1.3144 0.1866 -2.0365
v  0.3684 0.1866 -2.5536
v  0.3684 0.0000 -2.5536
v  0.0000 0.0000 -2.5800
v  0.0000 0.1866 -2.5800
v  0.7293 0.1866 -2.4751
v  0.7293 -0.0000 -2.4751
v  1.0754 0.1866 -2.3461
v  1.0754 0.0000 -2.3461
v  1.3996 0.1866 -2.1690
v  1.3996 0.0000 -2.1690
v  2.5624 0.0000 -0.3597
v  2.5624 0.1866 -0.3597
v  2.5800 0.1866 -0.0000
v  2.5800 0.0000 -0.0000
v  2.4839 0.0000 -0.7206
v  2.4839 0.1866 -0.7206
v  2.3548 0.0000 -1.0667
v  2.3548 0.1866 -1.0667
v  2.1778 0.0000 -1.3908
v  2.1778 0.1866 -1.3908
# 73 vertices

vn 0.0486 0.9972 -0.0561
vn -0.0403 0.9981 0.0465
vn -0.0465 0.9981 0.0403
vn 0.0561 0.9972 -0.0486
vn -0.0000 1.0000 -0.0000
vn -0.0131 0.9999 0.0113
vn -0.0113 0.9999 0.0131
vn -0.6414 0.2012 0.7403
vn -0.7403 0.2012 0.6415
vn 0.7548 0.0492 -0.6541
vn 0.7557 0.0000 -0.6549
vn 0.6549 0.0000 -0.7557
vn 0.6541 0.0492 -0.7548
vn 0.0743 0.9972 -0.0099
vn -0.0603 0.9981 0.0080
vn -0.0619 0.9981 0.0029
vn 0.0713 0.9974 -0.0035
vn 0.0712 0.9972 -0.0209
vn -0.0591 0.9981 0.0173
vn 0.0675 0.9972 -0.0308
vn -0.0560 0.9981 0.0256
vn 0.0624 0.9972 -0.0401
vn -0.0518 0.9981 0.0333
vn -0.0088 0.9981 0.0609
vn 0.0105 0.9972 -0.0734
vn 0.0054 0.9971 -0.0755
vn -0.0045 0.9980 0.0627
vn -0.0173 0.9981 0.0591
vn 0.0209 0.9972 -0.0712
vn -0.0256 0.9981 0.0560
vn 0.0308 0.9972 -0.0675
vn -0.0333 0.9981 0.0518
vn 0.0401 0.9972 -0.0624
vn -0.0172 0.9999 0.0008
vn -0.0171 0.9999 0.0025
vn -0.0166 0.9999 0.0049
vn -0.0157 0.9999 0.0072
vn -0.0145 0.9999 0.0093
vn -0.0025 0.9999 0.0171
vn -0.0012 0.9998 0.0173
vn -0.0049 0.9999 0.0166
vn -0.0072 0.9999 0.0157
vn -0.0093 0.9999 0.0145
vn -0.9710 0.1955 0.1380
vn -0.9984 0.0292 0.0475
vn -0.9399 0.2012 0.2760
vn -0.8910 0.2012 0.4069
vn -0.8240 0.2012 0.5296
vn -0.1394 0.2012 0.9696
vn -0.0699 0.2004 0.9772
vn -0.2759 0.2012 0.9399
vn -0.4069 0.2012 0.8910
vn -0.5296 0.2012 0.8241
vn 0.1421 0.0492 -0.9886
vn 0.1423 0.0000 -0.9898
vn 0.0713 0.0000 -0.9975
vn 0.0713 0.0489 -0.9963
vn 0.2814 0.0492 -0.9583
vn 0.2817 0.0000 -0.9595
vn 0.4149 0.0492 -0.9085
vn 0.4154 0.0000 -0.9096
vn 0.5400 0.0492 -0.8402
vn 0.5406 0.0000 -0.8413
vn 0.9912 0.0000 -0.1322
vn 0.9900 0.0489 -0.1321
vn 0.9976 0.0497 -0.0489
vn 0.9988 0.0000 -0.0490
vn 0.9595 0.0000 -0.2817
vn 0.9583 0.0492 -0.2814
vn 0.9096 0.0000 -0.4154
vn 0.9085 0.0492 -0.4149
vn 0.8413 0.0000 -0.5406
vn 0.8402 0.0492 -0.5400
# 73 vertex normals

vt 0.3640 0.9669 0.0000
vt 0.3613 0.9582 0.0000
vt 0.3832 0.9504 0.0000
vt 0.3865 0.9589 0.0000
vt 0.1712 0.4935 0.0000
vt 0.2764 0.3724 0.0000
vt 0.2926 0.3887 0.0000
vt 0.3610 0.9573 0.0000
vt 0.3602 0.9548 0.0000
vt 0.3817 0.9472 0.0000
vt 0.3828 0.9496 0.0000
vt 0.3867 0.9598 0.0000
vt 0.3914 0.9712 0.0000
vt 0.3678 0.9796 0.0000
vt 0.3641 0.9678 0.0000
vt 0.4679 0.9090 0.0000
vt 0.4619 0.9021 0.0000
vt 0.4781 0.8865 0.0000
vt 0.4851 0.8928 0.0000
vt 0.4491 0.9239 0.0000
vt 0.4438 0.9166 0.0000
vt 0.4293 0.9373 0.0000
vt 0.4245 0.9296 0.0000
vt 0.4084 0.9490 0.0000
vt 0.4043 0.9409 0.0000
vt 0.2697 0.9693 0.0000
vt 0.2692 0.9783 0.0000
vt 0.2452 0.9767 0.0000
vt 0.2467 0.9679 0.0000
vt 0.2929 0.9698 0.0000
vt 0.2932 0.9788 0.0000
vt 0.3160 0.9679 0.0000
vt 0.3172 0.9769 0.0000
vt 0.3389 0.9640 0.0000
vt 0.3408 0.9729 0.0000
vt 0.1719 0.3327 0.0000
vt 0.1942 0.3344 0.0000
vt 0.2166 0.3394 0.0000
vt 0.2381 0.3475 0.0000
vt 0.2581 0.3586 0.0000
vt 0.3299 0.4713 0.0000
vt 0.3314 0.4941 0.0000
vt 0.3251 0.4488 0.0000
vt 0.3172 0.4273 0.0000
vt 0.3063 0.4071 0.0000
vt 0.4612 0.9015 0.0000
vt 0.4594 0.8995 0.0000
vt 0.4754 0.8840 0.0000
vt 0.4773 0.8860 0.0000
vt 0.4431 0.9159 0.0000
vt 0.4415 0.9138 0.0000
vt 0.4240 0.9288 0.0000
vt 0.4225 0.9266 0.0000
vt 0.4038 0.9401 0.0000
vt 0.4026 0.9377 0.0000
vt 0.2699 0.9654 0.0000
vt 0.2698 0.9682 0.0000
vt 0.2469 0.9672 0.0000
vt 0.2470 0.9646 0.0000
vt 0.2927 0.9663 0.0000
vt 0.2928 0.9689 0.0000
vt 0.3155 0.9644 0.0000
vt 0.3158 0.9670 0.0000
vt 0.3380 0.9605 0.0000
vt 0.3386 0.9631 0.0000
vt 0.2690 0.9791 0.0000
vt 0.2687 0.9915 0.0000
vt 0.2443 0.9905 0.0000
vt 0.2448 0.9780 0.0000
vt 0.2932 0.9798 0.0000
vt 0.2937 0.9921 0.0000
vt 0.3171 0.9779 0.0000
vt 0.3187 0.9901 0.0000
vt 0.3408 0.9739 0.0000
vt 0.3435 0.9859 0.0000
vt 0.4762 0.9190 0.0000
vt 0.4684 0.9097 0.0000
vt 0.4859 0.8938 0.0000
vt 0.4940 0.9031 0.0000
vt 0.4568 0.9346 0.0000
vt 0.4495 0.9247 0.0000
vt 0.4361 0.9486 0.0000
vt 0.4296 0.9382 0.0000
vt 0.4143 0.9609 0.0000
vt 0.4086 0.9499 0.0000
# 85 texture coords

g SideWalkCorner
usemtl Material__3080
s 1
f 1/1/1 2/2/2 3/3/3 
f 3/3/3 4/4/4 1/1/1 
f 5/5/5 6/6/6 7/7/7 
f 8/8/8 7/9/7 6/10/6 
f 6/10/6 9/11/9 8/8/8 
f 10/12/10 11/13/11 12/14/12 
f 12/14/12 13/15/13 10/12/10 
f 2/2/2 8/8/8 9/11/9 
f 9/11/9 3/3/3 2/2/2 
f 4/4/4 10/12/10 13/15/13 
f 13/15/13 1/1/1 4/4/4 
f 14/16/14 15/17/15 16/18/16 
f 16/18/16 17/19/17 14/16/14 
f 18/20/18 19/21/19 15/17/15 
f 15/17/15 14/16/14 18/20/18 
f 20/22/20 21/23/21 19/21/19 
f 19/21/19 18/20/18 20/22/20 
f 22/24/22 23/25/23 21/23/21 
f 21/23/21 20/22/20 22/24/22 
f 4/4/4 3/3/3 23/25/23 
f 23/25/23 22/24/22 4/4/4 
f 24/26/24 25/27/25 26/28/26 
f 26/28/26 27/29/27 24/26/24 
f 28/30/28 29/31/29 25/27/25 
f 25/27/25 24/26/24 28/30/28 
f 30/32/30 31/33/31 29/31/29 
f 29/31/29 28/30/28 30/32/30 
f 32/34/32 33/35/33 31/33/31 
f 31/33/31 30/32/30 32/34/32 
f 2/2/2 1/1/1 33/35/33 
f 33/35/33 32/34/32 2/2/2 
f 5/5/5 34/36/34 35/37/35 
f 5/5/5 35/37/35 36/38/36 
f 5/5/5 36/38/36 37/39/37 
f 5/5/5 37/39/37 38/40/38 
f 5/5/5 38/40/38 6/6/6 
f 39/41/39 40/42/40 5/5/5 
f 41/43/41 39/41/39 5/5/5 
f 42/44/42 41/43/41 5/5/5 
f 43/45/43 42/44/42 5/5/5 
f 7/7/7 43/45/43 5/5/5 
f 44/46/44 35/47/35 34/48/34 
f 34/48/34 45/49/45 44/46/44 
f 46/50/46 36/51/36 35/47/35 
f 35/47/35 44/46/44 46/50/46 
f 47/52/47 37/53/37 36/51/36 
f 36/51/36 46/50/46 47/52/47 
f 48/54/48 38/55/38 37/53/37 
f 37/53/37 47/52/47 48/54/48 
f 9/11/9 6/10/6 38/55/38 
f 38/55/38 48/54/48 9/11/9 
f 39/56/39 49/57/49 50/58/50 
f 50/58/50 40/59/40 39/56/39 
f 41/60/41 51/61/51 49/57/49 
f 49/57/49 39/56/39 41/60/41 
f 42/62/42 52/63/52 51/61/51 
f 51/61/51 41/60/41 42/62/42 
f 43/64/43 53/65/53 52/63/52 
f 52/63/52 42/62/42 43/64/43 
f 7/9/7 8/8/8 53/65/53 
f 53/65/53 43/64/43 7/9/7 
f 54/66/54 55/67/55 56/68/56 
f 56/68/56 57/69/57 54/66/54 
f 58/70/58 59/71/59 55/67/55 
f 55/67/55 54/66/54 58/70/58 
f 60/72/60 61/73/61 59/71/59 
f 59/71/59 58/70/58 60/72/60 
f 62/74/62 63/75/63 61/73/61 
f 61/73/61 60/72/60 62/74/62 
f 13/15/13 12/14/12 63/75/63 
f 63/75/63 62/74/62 13/15/13 
f 64/76/64 65/77/65 66/78/66 
f 66/78/66 67/79/67 64/76/64 
f 68/80/68 69/81/69 65/77/65 
f 65/77/65 64/76/64 68/80/68 
f 70/82/70 71/83/71 69/81/69 
f 69/81/69 68/80/68 70/82/70 
f 72/84/72 73/85/73 71/83/71 
f 71/83/71 70/82/70 72/84/72 
f 11/13/11 10/12/10 73/85/73 
f 73/85/73 72/84/72 11/13/11 
f 15/17/15 44/46/44 45/49/45 
f 45/49/45 16/18/16 15/17/15 
f 19/21/19 46/50/46 44/46/44 
f 44/46/44 15/17/15 19/21/19 
f 21/23/21 47/52/47 46/50/46 
f 46/50/46 19/21/19 21/23/21 
f 23/25/23 48/54/48 47/52/47 
f 47/52/47 21/23/21 23/25/23 
f 3/3/3 9/11/9 48/54/48 
f 48/54/48 23/25/23 3/3/3 
f 49/57/49 24/26/24 27/29/27 
f 27/29/27 50/58/50 49/57/49 
f 51/61/51 28/30/28 24/26/24 
f 24/26/24 49/57/49 51/61/51 
f 52/63/52 30/32/30 28/30/28 
f 28/30/28 51/61/51 52/63/52 
f 53/65/53 32/34/32 30/32/30 
f 30/32/30 52/63/52 53/65/53 
f 8/8/8 2/2/2 32/34/32 
f 32/34/32 53/65/53 8/8/8 
f 25/27/25 54/66/54 57/69/57 
f 57/69/57 26/28/26 25/27/25 
f 29/31/29 58/70/58 54/66/54 
f 54/66/54 25/27/25 29/31/29 
f 31/33/31 60/72/60 58/70/58 
f 58/70/58 29/31/29 31/33/31 
f 33/35/33 62/74/62 60/72/60 
f 60/72/60 31/33/31 33/35/33 
f 1/1/1 13/15/13 62/74/62 
f 62/74/62 33/35/33 1/1/1 
f 65/77/65 14/16/14 17/19/17 
f 17/19/17 66/78/66 65/77/65 
f 69/81/69 18/20/18 14/16/14 
f 14/16/14 65/77/65 69/81/69 
f 71/83/71 20/22/20 18/20/18 
f 18/20/18 69/81/69 71/83/71 
f 73/85/73 22/24/22 20/22/20 
f 20/22/20 71/83/71 73/85/73 
f 10/12/10 4/4/4 22/24/22 
f 22/24/22 73/85/73 10/12/10 
# 121 faces

