# 3ds Max Wavefront OBJ Exporter v0.97b - (c)2007 guruware
# File Created: 15.07.2016 18:33:28

#
# object FenceHinge
#

v  0.0638 0.5395 0.4375
v  0.0638 0.5395 0.5960
v  -0.0638 0.5395 0.5960
v  -0.0638 0.5395 0.4375
v  0.0638 0.7395 0.4375
v  -0.0638 0.7395 0.4375
v  -0.0638 0.7395 0.5960
v  0.0638 0.7395 0.5960
v  0.0797 0.7095 0.4375
v  0.0797 0.7095 0.5960
v  0.0797 0.5695 0.5960
v  0.0797 0.5695 0.4375
v  -0.0797 0.7095 0.5960
v  -0.0797 0.7095 0.4375
v  -0.0797 0.5695 0.4375
v  -0.0797 0.5695 0.5960
v  0.0638 3.0497 0.4375
v  0.0638 3.0497 0.5960
v  -0.0638 3.0497 0.5960
v  -0.0638 3.0497 0.4375
v  0.0638 3.2497 0.4375
v  -0.0638 3.2497 0.4375
v  -0.0638 3.2497 0.5960
v  0.0638 3.2497 0.5960
v  0.0797 3.2197 0.4375
v  0.0797 3.2197 0.5960
v  0.0797 3.0797 0.5960
v  0.0797 3.0797 0.4375
v  -0.0797 3.2197 0.5960
v  -0.0797 3.2197 0.4375
v  -0.0797 3.0797 0.4375
v  -0.0797 3.0797 0.5960
v  0.0638 1.8516 0.4375
v  0.0638 1.8516 0.5960
v  -0.0638 1.8516 0.5960
v  -0.0638 1.8516 0.4375
v  0.0638 2.0516 0.4375
v  -0.0638 2.0516 0.4375
v  -0.0638 2.0516 0.5960
v  0.0638 2.0516 0.5960
v  0.0797 2.0216 0.4375
v  0.0797 2.0216 0.5960
v  0.0797 1.8816 0.5960
v  0.0797 1.8816 0.4375
v  -0.0797 2.0216 0.5960
v  -0.0797 2.0216 0.4375
v  -0.0797 1.8816 0.4375
v  -0.0797 1.8816 0.5960
v  0.0956 0.4079 0.6021
v  0.0663 0.4079 0.5314
v  0.0663 3.3679 0.5314
v  0.0956 3.3679 0.6021
v  -0.0044 0.4079 0.5021
v  -0.0044 3.3679 0.5021
v  -0.0751 0.4079 0.5314
v  -0.0751 3.3679 0.5314
v  -0.1044 0.4079 0.6021
v  -0.1044 3.3679 0.6021
v  -0.0751 0.4079 0.6729
v  -0.0751 3.3679 0.6729
v  -0.0044 0.4079 0.7021
v  -0.0044 3.3679 0.7021
v  0.0663 0.4079 0.6729
v  0.0663 3.3679 0.6729
v  -0.0044 0.3879 0.6805
v  -0.0598 0.3879 0.6575
v  -0.0827 0.3879 0.6021
v  -0.0598 0.3879 0.5467
v  -0.0044 0.3879 0.5238
v  0.0510 0.3879 0.5467
v  0.0740 0.3879 0.6021
v  0.0510 0.3879 0.6575
v  0.0510 3.3879 0.5467
v  -0.0044 3.3879 0.5238
v  -0.0598 3.3879 0.5467
v  -0.0827 3.3879 0.6021
v  -0.0598 3.3879 0.6575
v  -0.0044 3.3879 0.6805
v  0.0510 3.3879 0.6575
v  0.0740 3.3879 0.6021
# 80 vertices

vn 0.2047 -0.9788 0.0000
vn 0.2047 -0.9788 -0.0000
vn -0.2047 -0.9788 0.0000
vn 0.2047 0.9788 -0.0000
vn -0.2047 0.9788 0.0000
vn 0.9956 0.0934 0.0000
vn 0.9956 0.0933 0.0000
vn 0.9956 -0.0933 0.0000
vn 0.9956 -0.0934 0.0000
vn -0.9956 0.0934 0.0000
vn -0.9956 -0.0934 0.0000
vn 0.2047 0.9788 0.0000
vn 0.9956 0.0934 -0.0000
vn 0.9956 -0.0934 -0.0000
vn -0.9956 0.0933 0.0000
vn -0.9956 -0.0933 0.0000
vn 1.0000 -0.0055 0.0002
vn 0.7072 -0.0055 -0.7070
vn 0.7070 0.0055 -0.7072
vn 1.0000 0.0055 -0.0002
vn 0.0002 -0.0055 -1.0000
vn -0.0002 0.0055 -1.0000
vn -0.7070 -0.0055 -0.7072
vn -0.7072 0.0055 -0.7070
vn -1.0000 -0.0055 -0.0002
vn -1.0000 0.0055 0.0002
vn -0.7072 -0.0055 0.7070
vn -0.7070 0.0055 0.7072
vn -0.0002 -0.0055 1.0000
vn 0.0002 0.0055 1.0000
vn 0.7070 -0.0055 0.7072
vn 0.7072 0.0055 0.7070
vn -0.0070 -0.9852 0.1714
vn -0.2834 -0.9227 0.2612
vn -0.1714 -0.9852 -0.0070
vn -0.2612 -0.9227 -0.2834
vn 0.0070 -0.9852 -0.1714
vn 0.2834 -0.9227 -0.2612
vn 0.1714 -0.9852 0.0070
vn 0.2612 -0.9227 0.2834
vn 0.1162 0.9852 -0.1261
vn -0.0157 0.9227 -0.3851
vn -0.1261 0.9852 -0.1162
vn -0.3851 0.9227 0.0157
vn -0.1162 0.9852 0.1261
vn 0.0157 0.9227 0.3851
vn 0.1261 0.9852 0.1162
vn 0.3851 0.9227 -0.0157
# 48 vertex normals

vt 0.7909 0.6338 0.0000
vt 0.7909 0.3571 0.0000
vt 0.7979 0.3571 0.0000
vt 0.7979 0.6338 0.0000
vt 0.8126 0.6338 0.0000
vt 0.8056 0.6338 0.0000
vt 0.8056 0.3571 0.0000
vt 0.8126 0.3571 0.0000
vt 0.7850 0.6338 0.0000
vt 0.7850 0.3571 0.0000
vt 0.7891 0.3571 0.0000
vt 0.7891 0.6338 0.0000
vt 0.8038 0.3571 0.0000
vt 0.8038 0.6338 0.0000
vt 0.7997 0.6338 0.0000
vt 0.7997 0.3571 0.0000
vt 0.7837 0.6338 0.0000
vt 0.7837 0.3571 0.0000
vt 0.7587 0.3870 0.0000
vt 0.7649 0.3870 0.0000
vt 0.7649 0.6273 0.0000
vt 0.7587 0.6273 0.0000
vt 0.7712 0.3870 0.0000
vt 0.7712 0.6273 0.0000
vt 0.7214 0.3870 0.0000
vt 0.7277 0.3870 0.0000
vt 0.7277 0.6273 0.0000
vt 0.7214 0.6273 0.0000
vt 0.7339 0.3870 0.0000
vt 0.7339 0.6273 0.0000
vt 0.7401 0.3870 0.0000
vt 0.7401 0.6273 0.0000
vt 0.7463 0.3870 0.0000
vt 0.7463 0.6273 0.0000
vt 0.7525 0.3870 0.0000
vt 0.7525 0.6273 0.0000
vt 0.6844 0.6032 0.0000
vt 0.6845 0.5921 0.0000
vt 0.6924 0.5843 0.0000
vt 0.7035 0.5843 0.0000
vt 0.7113 0.5922 0.0000
vt 0.7112 0.6033 0.0000
vt 0.7033 0.6111 0.0000
vt 0.6922 0.6111 0.0000
vt 0.7112 0.6321 0.0000
vt 0.7113 0.6432 0.0000
vt 0.7034 0.6511 0.0000
vt 0.6923 0.6511 0.0000
vt 0.6844 0.6433 0.0000
vt 0.6844 0.6322 0.0000
vt 0.6922 0.6243 0.0000
vt 0.7033 0.6243 0.0000
vt 0.7054 0.6161 0.0000
vt 0.7162 0.6054 0.0000
vt 0.7162 0.6300 0.0000
vt 0.7054 0.6193 0.0000
vt 0.7163 0.5902 0.0000
vt 0.7163 0.6452 0.0000
vt 0.7056 0.5793 0.0000
vt 0.7055 0.6560 0.0000
vt 0.6903 0.5793 0.0000
vt 0.6903 0.6561 0.0000
vt 0.6795 0.5900 0.0000
vt 0.6795 0.6454 0.0000
vt 0.6794 0.6052 0.0000
vt 0.6794 0.6301 0.0000
vt 0.6901 0.6161 0.0000
vt 0.6902 0.6193 0.0000
# 68 texture coords

g FenceHinge
s 1
f 1/1/1 2/2/2 3/3/3 
f 3/3/3 4/4/3 1/1/1 
f 5/5/4 6/6/5 7/7/5 
f 7/7/5 8/8/4 5/5/4 
f 9/9/6 10/10/7 11/11/8 
f 11/11/8 12/12/9 9/9/6 
f 13/13/10 14/14/10 15/15/11 
f 15/15/11 16/16/11 13/13/10 
f 15/15/11 4/4/3 3/3/3 
f 3/3/3 16/16/11 15/15/11 
f 11/11/8 2/2/2 1/1/1 
f 1/1/1 12/12/9 11/11/8 
f 9/9/6 5/17/4 8/18/4 
f 8/18/4 10/10/7 9/9/6 
f 13/13/10 7/7/5 6/6/5 
f 6/6/5 14/14/10 13/13/10 
f 17/1/1 18/2/1 19/3/3 
f 19/3/3 20/4/3 17/1/1 
f 21/5/12 22/6/5 23/7/5 
f 23/7/5 24/8/12 21/5/12 
f 25/9/6 26/10/13 27/11/9 
f 27/11/9 28/12/14 25/9/6 
f 29/13/10 30/14/15 31/15/16 
f 31/15/16 32/16/11 29/13/10 
f 31/15/16 20/4/3 19/3/3 
f 19/3/3 32/16/11 31/15/16 
f 27/11/9 18/2/1 17/1/1 
f 17/1/1 28/12/14 27/11/9 
f 25/9/6 21/17/12 24/18/12 
f 24/18/12 26/10/13 25/9/6 
f 29/13/10 23/7/5 22/6/5 
f 22/6/5 30/14/15 29/13/10 
f 33/1/1 34/2/1 35/3/3 
f 35/3/3 36/4/3 33/1/1 
f 37/5/12 38/6/5 39/7/5 
f 39/7/5 40/8/12 37/5/12 
f 41/9/7 42/10/6 43/11/9 
f 43/11/9 44/12/8 41/9/7 
f 45/13/10 46/14/10 47/15/11 
f 47/15/11 48/16/11 45/13/10 
f 47/15/11 36/4/3 35/3/3 
f 35/3/3 48/16/11 47/15/11 
f 43/11/9 34/2/1 33/1/1 
f 33/1/1 44/12/8 43/11/9 
f 41/9/7 37/17/12 40/18/12 
f 40/18/12 42/10/6 41/9/7 
f 45/13/10 39/7/5 38/6/5 
f 38/6/5 46/14/10 45/13/10 
f 49/19/17 50/20/18 51/21/19 
f 51/21/19 52/22/20 49/19/17 
f 50/20/18 53/23/21 54/24/22 
f 54/24/22 51/21/19 50/20/18 
f 53/25/21 55/26/23 56/27/24 
f 56/27/24 54/28/22 53/25/21 
f 55/26/23 57/29/25 58/30/26 
f 58/30/26 56/27/24 55/26/23 
f 57/29/25 59/31/27 60/32/28 
f 60/32/28 58/30/26 57/29/25 
f 59/31/27 61/33/29 62/34/30 
f 62/34/30 60/32/28 59/31/27 
f 61/33/29 63/35/31 64/36/32 
f 64/36/32 62/34/30 61/33/29 
f 63/35/31 49/19/17 52/22/20 
f 52/22/20 64/36/32 63/35/31 
f 65/37/33 66/38/34 67/39/35 
f 67/39/35 68/40/36 69/41/37 
f 69/41/37 70/42/38 71/43/39 
f 67/39/35 69/41/37 71/43/39 
f 65/37/33 67/39/35 71/43/39 
f 72/44/40 65/37/33 71/43/39 
f 73/45/41 74/46/42 75/47/43 
f 75/47/43 76/48/44 77/49/45 
f 77/49/45 78/50/46 79/51/47 
f 75/47/43 77/49/45 79/51/47 
f 73/45/41 75/47/43 79/51/47 
f 80/52/48 73/45/41 79/51/47 
f 49/53/17 71/43/39 70/42/38 
f 70/42/38 50/54/18 49/53/17 
f 51/55/19 73/45/41 80/52/48 
f 80/52/48 52/56/20 51/55/19 
f 50/54/18 70/42/38 69/41/37 
f 69/41/37 53/57/21 50/54/18 
f 54/58/22 74/46/42 73/45/41 
f 73/45/41 51/55/19 54/58/22 
f 53/57/21 69/41/37 68/40/36 
f 68/40/36 55/59/23 53/57/21 
f 56/60/24 75/47/43 74/46/42 
f 74/46/42 54/58/22 56/60/24 
f 55/59/23 68/40/36 67/39/35 
f 67/39/35 57/61/25 55/59/23 
f 58/62/26 76/48/44 75/47/43 
f 75/47/43 56/60/24 58/62/26 
f 57/61/25 67/39/35 66/38/34 
f 66/38/34 59/63/27 57/61/25 
f 60/64/28 77/49/45 76/48/44 
f 76/48/44 58/62/26 60/64/28 
f 59/63/27 66/38/34 65/37/33 
f 65/37/33 61/65/29 59/63/27 
f 62/66/30 78/50/46 77/49/45 
f 77/49/45 60/64/28 62/66/30 
f 61/65/29 65/37/33 72/44/40 
f 72/44/40 63/67/31 61/65/29 
f 64/68/32 79/51/47 78/50/46 
f 78/50/46 62/66/30 64/68/32 
f 63/67/31 72/44/40 71/43/39 
f 71/43/39 49/53/17 63/67/31 
f 52/56/20 80/52/48 79/51/47 
f 79/51/47 64/68/32 52/56/20 
# 108 faces

