# 3ds Max Wavefront OBJ Exporter v0.97b - (c)2007 guruware
# File Created: 08.06.2016 22:15:16

mtllib Parcel.mtl

#
# object Parcel
#

v  0.3500 0.6680 -0.4800
v  0.3500 0.6680 0.4800
v  0.3500 0.2080 0.4800
v  0.3500 0.2080 -0.4800
v  0.3300 0.2080 -0.5000
v  -0.3300 0.2080 -0.5000
v  -0.3300 0.6680 -0.5000
v  0.3300 0.6680 -0.5000
v  0.3300 0.1880 0.4800
v  -0.3300 0.1880 0.4800
v  -0.3300 0.1880 -0.4800
v  0.3300 0.1880 -0.4800
v  -0.3300 0.6880 -0.4800
v  -0.3300 0.6880 0.4800
v  0.3300 0.6880 0.4800
v  0.3300 0.6880 -0.4800
v  0.3300 0.2080 0.5000
v  0.3300 0.6680 0.5000
v  -0.3300 0.6680 0.5000
v  -0.3300 0.2080 0.5000
v  -0.3500 0.6680 0.4800
v  -0.3500 0.6680 -0.4800
v  -0.3500 0.2080 -0.4800
v  -0.3500 0.2080 0.4800
v  0.3300 0.1930 -0.4950
v  0.3433 0.1947 -0.4933
v  0.3450 0.1930 -0.4800
v  -0.3450 0.1930 -0.4800
v  -0.3433 0.1947 -0.4933
v  -0.3300 0.1930 -0.4950
v  0.3300 0.6830 -0.4950
v  0.3433 0.6814 -0.4933
v  0.3450 0.6680 -0.4950
v  -0.3450 0.6830 -0.4800
v  -0.3433 0.6814 -0.4933
v  -0.3450 0.6680 -0.4950
v  -0.3300 0.1930 0.4950
v  -0.3433 0.1947 0.4933
v  -0.3450 0.1930 0.4800
v  0.3450 0.2080 0.4950
v  0.3433 0.1947 0.4933
v  0.3450 0.1930 0.4800
v  0.3300 0.6830 0.4950
v  0.3433 0.6814 0.4933
v  0.3450 0.6830 0.4800
v  -0.3300 0.6830 0.4950
v  -0.3433 0.6814 0.4933
v  -0.3450 0.6680 0.4950
v  0.3450 0.6830 -0.4800
v  -0.3300 0.6830 -0.4950
v  -0.3450 0.6830 0.4800
v  0.3450 0.2080 -0.4950
v  -0.3450 0.2080 -0.4950
v  0.3300 0.1930 0.4950
v  0.3450 0.6680 0.4950
v  -0.3450 0.2080 0.4950
# 56 vertices

vn 0.9804 0.1393 -0.1393
vn 0.9804 0.1393 0.1393
vn 0.9804 -0.1393 0.1393
vn 0.9804 -0.1393 -0.1393
vn 0.1559 -0.1559 -0.9754
vn -0.1393 -0.1393 -0.9804
vn -0.1393 0.1393 -0.9804
vn 0.1393 0.1393 -0.9804
vn 0.1393 -0.9804 0.1393
vn -0.1393 -0.9804 0.1393
vn -0.1393 -0.9804 -0.1393
vn 0.1393 -0.9804 -0.1393
vn -0.1559 0.9754 -0.1559
vn -0.1559 0.9754 0.1559
vn 0.1393 0.9804 0.1393
vn 0.1559 0.9754 -0.1559
vn 0.1559 -0.1559 0.9754
vn 0.1559 0.1559 0.9754
vn -0.1393 0.1393 0.9804
vn -0.1559 -0.1559 0.9754
vn -0.9804 0.1393 0.1393
vn -0.9804 0.1393 -0.1393
vn -0.9754 -0.1559 -0.1559
vn -0.9804 -0.1393 0.1393
vn 0.1071 -0.6905 -0.7154
vn 0.5583 -0.5583 -0.6137
vn 0.7045 -0.7045 -0.0853
vn -0.7154 -0.6905 -0.1071
vn -0.6137 -0.5583 -0.5583
vn -0.0853 -0.7045 -0.7045
vn 0.1071 0.7154 -0.6905
vn 0.5583 0.6137 -0.5583
vn 0.7045 0.0853 -0.7045
vn -0.6905 0.7154 -0.1071
vn -0.5583 0.6137 -0.5583
vn -0.7045 0.0853 -0.7045
vn -0.1071 -0.6905 0.7154
vn -0.5583 -0.5583 0.6137
vn -0.7045 -0.7045 0.0853
vn 0.6905 -0.1071 0.7154
vn 0.5583 -0.5583 0.6137
vn 0.7045 -0.7045 0.0853
vn 0.1071 0.6905 0.7154
vn 0.5583 0.5583 0.6137
vn 0.7045 0.7045 0.0853
vn -0.1071 0.7154 0.6905
vn -0.5583 0.6137 0.5583
vn -0.7045 0.0853 0.7045
vn 0.6905 0.7154 -0.1071
vn -0.1071 0.7154 -0.6905
vn -0.6905 0.7154 0.1071
vn 0.6905 -0.1071 -0.7154
vn -0.7154 -0.1071 -0.6905
vn 0.1071 -0.6905 0.7154
vn 0.6905 0.1071 0.7154
vn -0.6905 -0.1071 0.7154
# 56 vertex normals

vt 0.2794 0.6238 0.0000
vt 0.2794 0.7149 0.0000
vt 0.2357 0.7149 0.0000
vt 0.2357 0.6238 0.0000
vt 0.1555 0.6859 0.0000
vt 0.2184 0.6859 0.0000
vt 0.2184 0.7298 0.0000
vt 0.1555 0.7298 0.0000
vt 0.6997 0.5051 0.0000
vt 0.6371 0.5051 0.0000
vt 0.6371 0.4140 0.0000
vt 0.6997 0.4140 0.0000
vt 0.3450 0.6238 0.0000
vt 0.3450 0.7149 0.0000
vt 0.2824 0.7149 0.0000
vt 0.2824 0.6238 0.0000
vt 0.2986 0.9311 0.0000
vt 0.2987 0.9750 0.0000
vt 0.2358 0.9752 0.0000
vt 0.2356 0.9313 0.0000
vt 0.5904 0.5051 0.0000
vt 0.5904 0.4140 0.0000
vt 0.6341 0.4140 0.0000
vt 0.6341 0.5051 0.0000
vt 0.1552 0.6831 0.0000
vt 0.1555 0.6845 0.0000
vt 0.1543 0.6848 0.0000
vt 0.1535 0.6839 0.0000
vt 0.2187 0.6831 0.0000
vt 0.2205 0.6839 0.0000
vt 0.2196 0.6848 0.0000
vt 0.2185 0.6845 0.0000
vt 0.1555 0.7312 0.0000
vt 0.1543 0.7310 0.0000
vt 0.1541 0.7298 0.0000
vt 0.2213 0.7301 0.0000
vt 0.2204 0.7318 0.0000
vt 0.2196 0.7310 0.0000
vt 0.2199 0.7298 0.0000
vt 0.2353 0.9285 0.0000
vt 0.2356 0.9299 0.0000
vt 0.2344 0.9302 0.0000
vt 0.2336 0.9293 0.0000
vt 0.3014 0.9308 0.0000
vt 0.3000 0.9311 0.0000
vt 0.2997 0.9299 0.0000
vt 0.3006 0.9291 0.0000
vt 0.2990 0.9778 0.0000
vt 0.2987 0.9764 0.0000
vt 0.2999 0.9761 0.0000
vt 0.3007 0.9770 0.0000
vt 0.2357 0.9766 0.0000
vt 0.2346 0.9764 0.0000
vt 0.2343 0.9752 0.0000
vt 0.2809 0.7149 0.0000
vt 0.2809 0.6238 0.0000
vt 0.2185 0.7312 0.0000
vt 0.2187 0.7327 0.0000
vt 0.1552 0.7326 0.0000
vt 0.3465 0.6238 0.0000
vt 0.3465 0.7149 0.0000
vt 0.1541 0.6859 0.0000
vt 0.1526 0.7301 0.0000
vt 0.1526 0.6857 0.0000
vt 0.2199 0.6859 0.0000
vt 0.6356 0.5051 0.0000
vt 0.6356 0.4140 0.0000
vt 0.2986 0.9297 0.0000
vt 0.2988 0.9283 0.0000
vt 0.2342 0.6238 0.0000
vt 0.2342 0.7149 0.0000
vt 0.2327 0.7149 0.0000
vt 0.2327 0.6238 0.0000
vt 0.2355 0.9780 0.0000
vt 0.3001 0.9750 0.0000
vt 0.3016 0.9752 0.0000
vt 0.2342 0.9313 0.0000
vt 0.2213 0.6857 0.0000
vt 0.1535 0.7318 0.0000
vt 0.2327 0.9311 0.0000
vt 0.2337 0.9772 0.0000
vt 0.2329 0.9755 0.0000
vt 0.3480 0.6238 0.0000
vt 0.3480 0.7149 0.0000
# 84 texture coords

g Parcel
usemtl Bake_Material
s 1
f 1/1/1 2/2/2 3/3/3 
f 3/3/3 4/4/4 1/1/1 
f 5/5/5 6/6/6 7/7/7 
f 7/7/7 8/8/8 5/5/5 
f 9/9/9 10/10/10 11/11/11 
f 11/11/11 12/12/12 9/9/9 
f 13/13/13 14/14/14 15/15/15 
f 15/15/15 16/16/16 13/13/13 
f 17/17/17 18/18/18 19/19/19 
f 19/19/19 20/20/20 17/17/17 
f 21/21/21 22/22/22 23/23/23 
f 23/23/23 24/24/24 21/21/21 
f 12/25/12 25/26/25 26/27/26 
f 26/27/26 27/28/27 12/25/12 
f 11/29/11 28/30/28 29/31/29 
f 29/31/29 30/32/30 11/29/11 
f 8/8/8 31/33/31 32/34/32 
f 32/34/32 33/35/33 8/8/8 
f 22/36/22 34/37/34 35/38/35 
f 35/38/35 36/39/36 22/36/22 
f 10/40/10 37/41/37 38/42/38 
f 38/42/38 39/43/39 10/40/10 
f 3/44/3 40/45/40 41/46/41 
f 41/46/41 42/47/42 3/44/3 
f 15/48/15 43/49/43 44/50/44 
f 44/50/44 45/51/45 15/48/15 
f 19/19/19 46/52/46 47/53/47 
f 47/53/47 48/54/48 19/19/19 
f 30/32/30 25/26/25 12/25/12 
f 12/25/12 11/29/11 30/32/30 
f 45/55/45 49/56/49 16/16/16 
f 16/16/16 15/15/15 45/55/45 
f 31/33/31 50/57/50 13/58/13 
f 13/58/13 16/59/16 31/33/31 
f 34/60/34 51/61/51 14/14/14 
f 14/14/14 13/13/13 34/60/34 
f 52/62/52 33/35/33 1/63/1 
f 1/63/1 4/64/4 52/62/52 
f 53/65/53 36/39/36 7/7/7 
f 7/7/7 6/6/6 53/65/53 
f 39/66/39 28/67/28 11/11/11 
f 11/11/11 10/10/10 39/66/39 
f 54/68/54 37/41/37 10/40/10 
f 10/40/10 9/69/9 54/68/54 
f 27/70/27 42/71/42 9/72/9 
f 9/72/9 12/73/12 27/70/27 
f 46/52/46 43/49/43 15/48/15 
f 15/48/15 14/74/14 46/52/46 
f 55/75/55 40/45/40 3/44/3 
f 3/44/3 2/76/2 55/75/55 
f 48/54/48 56/77/56 20/20/20 
f 20/20/20 19/19/19 48/54/48 
f 25/26/25 5/5/5 52/62/52 
f 52/62/52 26/27/26 25/26/25 
f 26/27/26 52/62/52 4/64/4 
f 4/64/4 27/28/27 26/27/26 
f 28/30/28 23/78/23 53/65/53 
f 53/65/53 29/31/29 28/30/28 
f 29/31/29 53/65/53 6/6/6 
f 6/6/6 30/32/30 29/31/29 
f 31/33/31 16/59/16 49/79/49 
f 49/79/49 32/34/32 31/33/31 
f 32/34/32 49/79/49 1/63/1 
f 1/63/1 33/35/33 32/34/32 
f 34/37/34 13/58/13 50/57/50 
f 50/57/50 35/38/35 34/37/34 
f 35/38/35 50/57/50 7/7/7 
f 7/7/7 36/39/36 35/38/35 
f 37/41/37 20/20/20 56/77/56 
f 56/77/56 38/42/38 37/41/37 
f 38/42/38 56/77/56 24/80/24 
f 24/80/24 39/43/39 38/42/38 
f 40/45/40 17/17/17 54/68/54 
f 54/68/54 41/46/41 40/45/40 
f 41/46/41 54/68/54 9/69/9 
f 9/69/9 42/47/42 41/46/41 
f 43/49/43 18/18/18 55/75/55 
f 55/75/55 44/50/44 43/49/43 
f 44/50/44 55/75/55 2/76/2 
f 2/76/2 45/51/45 44/50/44 
f 46/52/46 14/74/14 51/81/51 
f 51/81/51 47/53/47 46/52/46 
f 47/53/47 51/81/51 21/82/21 
f 21/82/21 48/54/48 47/53/47 
f 6/6/6 5/5/5 25/26/25 
f 25/26/25 30/32/30 6/6/6 
f 2/2/2 1/1/1 49/56/49 
f 49/56/49 45/55/45 2/2/2 
f 8/8/8 7/7/7 50/57/50 
f 50/57/50 31/33/31 8/8/8 
f 22/83/22 21/84/21 51/61/51 
f 51/61/51 34/60/34 22/83/22 
f 5/5/5 8/8/8 33/35/33 
f 33/35/33 52/62/52 5/5/5 
f 23/78/23 22/36/22 36/39/36 
f 36/39/36 53/65/53 23/78/23 
f 24/24/24 23/23/23 28/67/28 
f 28/67/28 39/66/39 24/24/24 
f 17/17/17 20/20/20 37/41/37 
f 37/41/37 54/68/54 17/17/17 
f 4/4/4 3/3/3 42/71/42 
f 42/71/42 27/70/27 4/4/4 
f 19/19/19 18/18/18 43/49/43 
f 43/49/43 46/52/46 19/19/19 
f 18/18/18 17/17/17 40/45/40 
f 40/45/40 55/75/55 18/18/18 
f 21/82/21 24/80/24 56/77/56 
f 56/77/56 48/54/48 21/82/21 
# 108 faces

