# 3ds Max Wavefront OBJ Exporter v0.97b - (c)2007 guruware
# File Created: 08.06.2016 22:16:51

mtllib StreetSign2.mtl

#
# object StreetSign2
#

v  0.0237 2.2950 -0.0000
v  0.0237 2.7450 -0.4500
v  0.0937 2.7450 -0.4500
v  0.0937 2.2950 -0.0000
v  0.0237 3.1950 -0.0000
v  0.0937 3.1950 -0.0000
v  0.0237 2.7450 0.4500
v  0.0937 2.7450 0.4500
v  0.0352 3.0535 -0.0000
v  0.0352 2.7450 -0.3086
v  0.0352 2.4364 -0.0000
v  0.0352 2.7450 0.3086
v  0.1037 2.7450 -0.4359
v  0.1037 3.1808 -0.0000
v  0.1037 2.7450 0.4359
v  0.1037 2.3091 -0.0000
v  0.0237 2.3657 -0.0000
v  0.0237 2.7450 -0.3793
v  0.0237 2.7450 0.3793
v  0.0237 3.1243 -0.0000
v  -0.0263 0.0000 0.0500
v  -0.0616 0.0000 0.0354
v  -0.0763 0.0000 -0.0000
v  -0.0616 0.0000 -0.0354
v  -0.0263 0.0000 -0.0500
v  0.0091 0.0000 -0.0354
v  0.0237 0.0000 -0.0000
v  0.0091 0.0000 0.0354
v  0.0091 3.0000 -0.0354
v  0.0237 3.0000 -0.0000
v  -0.0263 3.0000 -0.0500
v  -0.0616 3.0000 -0.0354
v  -0.0763 3.0000 -0.0000
v  -0.0616 3.0000 0.0354
v  -0.0263 3.0000 0.0500
v  0.0091 3.0000 0.0354
v  -0.0571 2.8338 -0.0698
v  -0.0311 2.8338 -0.0750
v  -0.0311 2.6838 -0.0750
v  -0.0571 2.6838 -0.0698
v  -0.0816 2.8338 -0.0534
v  -0.0816 2.6838 -0.0534
v  -0.0980 2.8338 -0.0289
v  -0.0980 2.6838 -0.0289
v  -0.1037 2.8338 -0.0000
v  -0.1037 2.6838 -0.0000
v  -0.0980 2.8338 0.0289
v  -0.0980 2.6838 0.0289
v  -0.0816 2.8338 0.0534
v  -0.0816 2.6838 0.0534
v  -0.0571 2.8338 0.0698
v  -0.0571 2.6838 0.0698
v  -0.0311 2.8338 0.0750
v  -0.0311 2.6838 0.0750
v  0.0076 2.8338 -0.0750
v  0.0076 2.6838 -0.0750
v  0.0076 2.6838 0.0750
v  0.0076 2.8338 0.0750
v  0.0076 2.8338 -0.1182
v  0.0076 2.6838 -0.1182
v  0.0076 2.6838 0.1182
v  0.0076 2.8338 0.1182
v  -0.0282 2.6838 -0.0450
v  -0.0454 2.6838 -0.0416
v  -0.0454 2.8338 -0.0416
v  -0.0282 2.8338 -0.0450
v  -0.0600 2.6838 -0.0318
v  -0.0600 2.8338 -0.0318
v  -0.0697 2.6838 -0.0172
v  -0.0697 2.8338 -0.0172
v  -0.0732 2.6838 -0.0000
v  -0.0732 2.8338 -0.0000
v  -0.0697 2.6838 0.0172
v  -0.0697 2.8338 0.0172
v  -0.0600 2.6838 0.0318
v  -0.0600 2.8338 0.0318
v  -0.0454 2.6838 0.0416
v  -0.0454 2.8338 0.0416
v  -0.0282 2.6838 0.0450
v  -0.0282 2.8338 0.0450
v  0.0376 2.8338 -0.0450
v  0.0376 2.6838 -0.0450
v  0.0376 2.6838 0.0450
v  0.0376 2.8338 0.0450
v  0.0376 2.8338 -0.1182
v  0.0376 2.6838 -0.1182
v  0.0376 2.6838 0.1182
v  0.0376 2.8338 0.1182
# 88 vertices

vn 0.0000 -0.7071 -0.7071
vn -0.0000 0.7071 -0.7071
vn 0.0000 0.7071 -0.7071
vn 0.0000 0.7071 0.7071
vn 0.0000 -0.7071 0.7071
vn -0.9928 -0.1200 -0.0000
vn -0.9928 0.0000 0.1200
vn -0.9928 0.1200 0.0000
vn -0.9928 0.0000 -0.1200
vn 0.9054 0.0000 -0.4245
vn 0.9054 0.4245 -0.0000
vn 0.9054 -0.0000 0.4245
vn 0.9054 -0.4245 -0.0000
vn -1.0000 -0.0000 0.0000
vn -1.0000 0.0000 0.0000
vn -0.9992 0.0403 0.0000
vn -0.9992 -0.0000 0.0403
vn -1.0000 0.0000 -0.0000
vn -0.9992 0.0000 -0.0403
vn -0.9992 -0.0403 0.0000
vn 0.8165 0.0000 -0.5773
vn 0.8165 -0.5774 0.0000
vn 0.8165 0.5774 -0.0000
vn 0.8165 -0.0000 0.5774
vn 0.0000 -1.0000 -0.0000
vn 1.0000 0.0000 -0.0000
vn 0.7071 0.0000 -0.7071
vn 1.0000 0.0000 0.0000
vn 0.0000 0.0000 -1.0000
vn -0.0000 0.0000 -1.0000
vn -0.7071 0.0000 -0.7071
vn -0.7071 0.0000 0.7071
vn -0.0000 0.0000 1.0000
vn 0.0000 0.0000 1.0000
vn 0.7071 0.0000 0.7071
vn 0.0000 1.0000 -0.0000
vn -0.3827 0.0000 -0.9239
vn -0.0980 0.0000 -0.9952
vn -0.9239 0.0000 -0.3827
vn -0.9239 0.0000 0.3827
vn -0.3827 0.0000 0.9239
vn -0.0980 0.0000 0.9952
# 42 vertex normals

vt 0.9519 0.2365 0.0000
vt 0.8915 0.2365 0.0000
vt 0.8915 0.2298 0.0000
vt 0.9519 0.2298 0.0000
vt 0.5492 0.3449 0.0000
vt 0.6096 0.3449 0.0000
vt 0.6096 0.3515 0.0000
vt 0.5492 0.3515 0.0000
vt 0.4432 0.2106 0.0000
vt 0.5036 0.2106 0.0000
vt 0.5036 0.2172 0.0000
vt 0.4432 0.2172 0.0000
vt 0.4966 0.4332 0.0000
vt 0.5570 0.4332 0.0000
vt 0.5570 0.4399 0.0000
vt 0.4966 0.4399 0.0000
vt 0.4101 0.3496 0.0000
vt 0.4516 0.3499 0.0000
vt 0.4519 0.3914 0.0000
vt 0.4104 0.3911 0.0000
vt 0.5337 0.5296 0.0000
vt 0.5336 0.5885 0.0000
vt 0.4747 0.5885 0.0000
vt 0.4747 0.5296 0.0000
vt 0.4612 0.3402 0.0000
vt 0.4613 0.4008 0.0000
vt 0.4567 0.3962 0.0000
vt 0.4564 0.3451 0.0000
vt 0.4007 0.4008 0.0000
vt 0.4056 0.3960 0.0000
vt 0.4006 0.3402 0.0000
vt 0.4053 0.3449 0.0000
vt 0.5348 0.5285 0.0000
vt 0.4736 0.5285 0.0000
vt 0.5347 0.5897 0.0000
vt 0.4736 0.5896 0.0000
vt 0.4198 0.5375 0.0000
vt 0.4198 0.5339 0.0000
vt 0.4224 0.5313 0.0000
vt 0.4260 0.5314 0.0000
vt 0.4286 0.5340 0.0000
vt 0.4285 0.5376 0.0000
vt 0.4259 0.5402 0.0000
vt 0.4223 0.5401 0.0000
vt 0.8248 0.5313 0.0000
vt 0.8248 0.5349 0.0000
vt 0.5401 0.5349 0.0000
vt 0.5401 0.5313 0.0000
vt 0.8248 0.5386 0.0000
vt 0.5401 0.5386 0.0000
vt 0.8248 0.5422 0.0000
vt 0.5401 0.5422 0.0000
vt 0.8248 0.5458 0.0000
vt 0.5401 0.5458 0.0000
vt 0.8248 0.5495 0.0000
vt 0.5401 0.5495 0.0000
vt 0.8248 0.5531 0.0000
vt 0.5401 0.5531 0.0000
vt 0.8248 0.5240 0.0000
vt 0.8248 0.5277 0.0000
vt 0.5401 0.5277 0.0000
vt 0.5401 0.5240 0.0000
vt 0.1677 0.7855 0.0000
vt 0.1677 0.7818 0.0000
vt 0.1703 0.7793 0.0000
vt 0.1740 0.7793 0.0000
vt 0.1765 0.7819 0.0000
vt 0.1765 0.7856 0.0000
vt 0.1739 0.7881 0.0000
vt 0.1702 0.7881 0.0000
vt 0.8314 0.2590 0.0000
vt 0.8314 0.2565 0.0000
vt 0.8457 0.2565 0.0000
vt 0.8457 0.2590 0.0000
vt 0.8314 0.2618 0.0000
vt 0.8457 0.2618 0.0000
vt 0.8314 0.2646 0.0000
vt 0.8457 0.2646 0.0000
vt 0.8314 0.2674 0.0000
vt 0.8457 0.2674 0.0000
vt 0.8314 0.2702 0.0000
vt 0.8457 0.2702 0.0000
vt 0.8314 0.2730 0.0000
vt 0.8457 0.2730 0.0000
vt 0.8314 0.2758 0.0000
vt 0.8457 0.2758 0.0000
vt 0.8314 0.2784 0.0000
vt 0.8457 0.2784 0.0000
vt 0.8314 0.2529 0.0000
vt 0.8457 0.2529 0.0000
vt 0.8457 0.2820 0.0000
vt 0.8314 0.2820 0.0000
vt 0.8314 0.2488 0.0000
vt 0.8457 0.2488 0.0000
vt 0.8457 0.2861 0.0000
vt 0.8314 0.2861 0.0000
vt 0.9904 0.0092 0.0000
vt 0.9901 0.0075 0.0000
vt 0.9928 0.0064 0.0000
vt 0.9933 0.0089 0.0000
vt 0.6642 0.3147 0.0000
vt 0.6638 0.3163 0.0000
vt 0.6610 0.3160 0.0000
vt 0.6615 0.3135 0.0000
vt 0.9892 0.0062 0.0000
vt 0.9912 0.0041 0.0000
vt 0.6651 0.3133 0.0000
vt 0.6630 0.3112 0.0000
vt 0.9878 0.0052 0.0000
vt 0.9889 0.0025 0.0000
vt 0.6665 0.3123 0.0000
vt 0.6654 0.3097 0.0000
vt 0.9861 0.0049 0.0000
vt 0.9861 0.0020 0.0000
vt 0.6681 0.3120 0.0000
vt 0.6681 0.3091 0.0000
vt 0.9845 0.0052 0.0000
vt 0.9834 0.0025 0.0000
vt 0.6698 0.3123 0.0000
vt 0.6709 0.3097 0.0000
vt 0.9831 0.0062 0.0000
vt 0.9811 0.0041 0.0000
vt 0.6711 0.3133 0.0000
vt 0.6732 0.3112 0.0000
vt 0.9822 0.0075 0.0000
vt 0.9795 0.0064 0.0000
vt 0.6721 0.3147 0.0000
vt 0.6747 0.3135 0.0000
vt 0.9819 0.0092 0.0000
vt 0.9790 0.0089 0.0000
vt 0.6724 0.3163 0.0000
vt 0.6752 0.3160 0.0000
vt 0.6638 0.3225 0.0000
vt 0.6610 0.3197 0.0000
vt 0.9904 0.0154 0.0000
vt 0.9933 0.0126 0.0000
vt 0.9819 0.0154 0.0000
vt 0.9790 0.0126 0.0000
vt 0.6724 0.3225 0.0000
vt 0.6752 0.3197 0.0000
vt 0.6569 0.3225 0.0000
vt 0.6569 0.3197 0.0000
vt 0.8314 0.2459 0.0000
vt 0.8457 0.2459 0.0000
vt 0.9974 0.0154 0.0000
vt 0.9974 0.0126 0.0000
vt 0.9749 0.0154 0.0000
vt 0.9749 0.0126 0.0000
vt 0.8457 0.2890 0.0000
vt 0.8314 0.2890 0.0000
vt 0.6793 0.3225 0.0000
vt 0.6793 0.3197 0.0000
# 152 texture coords

g StreetSign2
usemtl Bake_Material
s 2
f 1/1/1 2/2/1 3/3/1 
f 3/3/1 4/4/1 1/1/1 
s 8
f 2/5/2 5/6/3 6/7/2 
f 6/7/2 3/8/2 2/5/2 
s 2
f 5/9/4 7/10/4 8/11/4 
f 8/11/4 6/12/4 5/9/4 
s 8
f 7/13/5 1/14/5 4/15/5 
f 4/15/5 8/16/5 7/13/5 
s 16
f 9/17/6 10/18/7 11/19/8 
f 11/19/8 12/20/9 9/17/6 
s 1
f 13/21/10 14/22/11 15/23/12 
f 15/23/12 16/24/13 13/21/10 
s 16
f 2/25/14 1/26/15 17/27/16 
f 17/27/16 18/28/17 2/25/14 
f 1/26/15 7/29/18 19/30/19 
f 19/30/19 17/27/16 1/26/15 
f 7/29/18 5/31/15 20/32/20 
f 20/32/20 19/30/19 7/29/18 
f 5/31/15 2/25/14 18/28/17 
f 18/28/17 20/32/20 5/31/15 
f 18/28/17 17/27/16 11/19/8 
f 11/19/8 10/18/7 18/28/17 
f 17/27/16 19/30/19 12/20/9 
f 12/20/9 11/19/8 17/27/16 
f 19/30/19 20/32/20 9/17/6 
f 9/17/6 12/20/9 19/30/19 
f 20/32/20 18/28/17 10/18/7 
f 10/18/7 9/17/6 20/32/20 
s 1
f 3/33/21 13/21/10 16/24/13 
f 16/24/13 4/34/22 3/33/21 
f 6/35/23 14/22/11 13/21/10 
f 13/21/10 3/33/21 6/35/23 
f 8/36/24 15/23/12 14/22/11 
f 14/22/11 6/35/23 8/36/24 
f 4/34/22 16/24/13 15/23/12 
f 15/23/12 8/36/24 4/34/22 
f 21/37/25 22/38/25 23/39/25 
f 23/39/25 24/40/25 25/41/25 
f 25/41/25 26/42/25 27/43/25 
f 23/39/25 25/41/25 27/43/25 
f 21/37/25 23/39/25 27/43/25 
f 28/44/25 21/37/25 27/43/25 
s 2
f 27/45/26 26/46/27 29/47/27 
f 29/47/27 30/48/28 27/45/26 
f 26/46/27 25/49/29 31/50/30 
f 31/50/30 29/47/27 26/46/27 
f 25/49/29 24/51/31 32/52/31 
f 32/52/31 31/50/30 25/49/29 
f 24/51/31 23/53/15 33/54/18 
f 33/54/18 32/52/31 24/51/31 
f 23/53/15 22/55/32 34/56/32 
f 34/56/32 33/54/18 23/53/15 
f 22/55/32 21/57/33 35/58/34 
f 35/58/34 34/56/32 22/55/32 
f 21/59/33 28/60/35 36/61/35 
f 36/61/35 35/62/34 21/59/33 
f 28/60/35 27/45/26 30/48/28 
f 30/48/28 36/61/35 28/60/35 
s 1
f 30/63/36 29/64/36 31/65/36 
f 31/65/36 32/66/36 33/67/36 
f 33/67/36 34/68/36 35/69/36 
f 31/65/36 33/67/36 35/69/36 
f 30/63/36 31/65/36 35/69/36 
f 36/70/36 30/63/36 35/69/36 
f 37/71/37 38/72/38 39/73/38 
f 39/73/38 40/74/37 37/71/37 
f 41/75/31 37/71/37 40/74/37 
f 40/74/37 42/76/31 41/75/31 
f 43/77/39 41/75/31 42/76/31 
f 42/76/31 44/78/39 43/77/39 
f 45/79/18 43/77/39 44/78/39 
f 44/78/39 46/80/18 45/79/18 
f 47/81/40 45/79/18 46/80/18 
f 46/80/18 48/82/40 47/81/40 
f 49/83/32 47/81/40 48/82/40 
f 48/82/40 50/84/32 49/83/32 
f 51/85/41 49/83/32 50/84/32 
f 50/84/32 52/86/41 51/85/41 
f 53/87/42 51/85/41 52/86/41 
f 52/86/41 54/88/42 53/87/42 
f 55/89/31 56/90/31 39/73/38 
f 39/73/38 38/72/38 55/89/31 
f 57/91/32 58/92/32 53/87/42 
f 53/87/42 54/88/42 57/91/32 
f 59/93/31 60/94/31 56/90/31 
f 56/90/31 55/89/31 59/93/31 
f 61/95/32 62/96/32 58/92/32 
f 58/92/32 57/91/32 61/95/32 
s 4
f 63/97/25 64/98/25 40/99/25 
f 40/99/25 39/100/25 63/97/25 
f 65/101/36 66/102/36 38/103/36 
f 38/103/36 37/104/36 65/101/36 
f 64/98/25 67/105/25 42/106/25 
f 42/106/25 40/99/25 64/98/25 
f 68/107/36 65/101/36 37/104/36 
f 37/104/36 41/108/36 68/107/36 
f 67/105/25 69/109/25 44/110/25 
f 44/110/25 42/106/25 67/105/25 
f 70/111/36 68/107/36 41/108/36 
f 41/108/36 43/112/36 70/111/36 
f 69/109/25 71/113/25 46/114/25 
f 46/114/25 44/110/25 69/109/25 
f 72/115/36 70/111/36 43/112/36 
f 43/112/36 45/116/36 72/115/36 
f 71/113/25 73/117/25 48/118/25 
f 48/118/25 46/114/25 71/113/25 
f 74/119/36 72/115/36 45/116/36 
f 45/116/36 47/120/36 74/119/36 
f 73/117/25 75/121/25 50/122/25 
f 50/122/25 48/118/25 73/117/25 
f 76/123/36 74/119/36 47/120/36 
f 47/120/36 49/124/36 76/123/36 
f 75/121/25 77/125/25 52/126/25 
f 52/126/25 50/122/25 75/121/25 
f 78/127/36 76/123/36 49/124/36 
f 49/124/36 51/128/36 78/127/36 
f 77/125/25 79/129/25 54/130/25 
f 54/130/25 52/126/25 77/125/25 
f 80/131/36 78/127/36 51/128/36 
f 51/128/36 53/132/36 80/131/36 
f 66/102/36 81/133/36 55/134/36 
f 55/134/36 38/103/36 66/102/36 
f 82/135/25 63/97/25 39/100/25 
f 39/100/25 56/136/25 82/135/25 
f 79/129/25 83/137/25 57/138/25 
f 57/138/25 54/130/25 79/129/25 
f 84/139/36 80/131/36 53/132/36 
f 53/132/36 58/140/36 84/139/36 
f 81/133/36 85/141/36 59/142/36 
f 59/142/36 55/134/36 81/133/36 
s 1
f 85/143/29 86/144/29 60/94/31 
f 60/94/31 59/93/31 85/143/29 
s 4
f 86/145/25 82/135/25 56/136/25 
f 56/136/25 60/146/25 86/145/25 
f 83/137/25 87/147/25 61/148/25 
f 61/148/25 57/138/25 83/137/25 
s 1
f 87/149/34 88/150/34 62/96/32 
f 62/96/32 61/95/32 87/149/34 
s 4
f 88/151/36 84/139/36 58/140/36 
f 58/140/36 62/152/36 88/151/36 
# 140 faces

