# 3ds Max Wavefront OBJ Exporter v0.97b - (c)2007 guruware
# File Created: 26.06.2016 18:53:57

mtllib FenceColumn.mtl

#
# object FenceColumn
#

v  0.4889 0.2972 -0.5216
v  0.5468 0.2044 -0.5795
v  0.0000 0.2044 -0.5795
v  0.0000 0.2972 -0.5216
v  0.0000 0.1706 -0.5882
v  0.5582 0.1706 -0.5882
v  0.5582 0.0200 -0.5882
v  0.0000 0.0200 -0.5882
v  0.4865 0.3111 -0.5045
v  0.0000 0.3111 -0.5010
v  0.0000 0.3111 -0.4524
v  0.4310 0.3111 -0.4489
v  0.5036 0.2972 -0.5068
v  0.5010 0.2972 -0.0000
v  0.5589 0.2044 -0.0000
v  0.5615 0.2044 -0.5648
v  0.4316 0.3111 -0.0000
v  0.4516 0.3011 -0.0000
v  0.5702 0.0200 -0.5762
v  0.5617 0.0000 -0.5797
v  0.5702 0.1706 -0.5762
v  0.0000 0.0000 -0.5762
v  0.5675 0.0200 -0.0000
v  0.5558 0.0000 -0.0000
v  0.0000 0.2911 -0.4433
v  0.4225 0.2911 -0.4433
v  0.5675 0.1706 -0.0000
v  -0.4889 0.2972 -0.5216
v  -0.5468 0.2044 -0.5795
v  -0.5582 0.0200 -0.5882
v  -0.5582 0.1706 -0.5882
v  -0.4865 0.3111 -0.5045
v  -0.4310 0.3111 -0.4489
v  -0.5036 0.2972 -0.5068
v  -0.5615 0.2044 -0.5648
v  -0.5589 0.2044 -0.0000
v  -0.4618 0.2942 -0.0000
v  -0.4807 0.3111 -0.0000
v  -0.4316 0.3111 -0.0000
v  -0.5617 0.0000 -0.5797
v  -0.5702 0.0200 -0.5762
v  -0.5702 0.1706 -0.5762
v  -0.5558 0.0000 -0.0000
v  -0.5675 0.0200 -0.0000
v  -0.4225 0.2911 -0.4433
v  -0.5675 0.1706 -0.0000
v  0.4889 0.2972 0.5216
v  0.0000 0.2972 0.5216
v  0.0000 0.2044 0.5795
v  0.5468 0.2044 0.5795
v  0.0000 0.1706 0.5882
v  0.0000 0.0200 0.5882
v  0.5582 0.0200 0.5882
v  0.5582 0.1706 0.5882
v  0.4865 0.3111 0.5045
v  0.4310 0.3111 0.4489
v  0.0000 0.3111 0.4524
v  0.0000 0.3111 0.5010
v  0.5036 0.2972 0.5068
v  0.5615 0.2044 0.5648
v  0.5617 0.0000 0.5797
v  0.5702 0.0200 0.5762
v  0.5702 0.1706 0.5762
v  0.0000 0.0000 0.5762
v  0.4225 0.2911 0.4433
v  0.0000 0.2911 0.4433
v  -0.4889 0.2972 0.5216
v  -0.5468 0.2044 0.5795
v  -0.5582 0.1706 0.5882
v  -0.5582 0.0200 0.5882
v  -0.4865 0.3111 0.5045
v  -0.4310 0.3111 0.4489
v  -0.5036 0.2972 0.5068
v  -0.5615 0.2044 0.5648
v  -0.5702 0.0200 0.5762
v  -0.5617 0.0000 0.5797
v  -0.5702 0.1706 0.5762
v  -0.4225 0.2911 0.4433
v  -0.4486 3.9500 0.4327
v  -0.4486 3.9500 -0.4047
v  -0.4486 0.0500 -0.4047
v  -0.4486 0.0500 0.4327
v  0.4187 3.9500 0.4626
v  -0.4187 3.9500 0.4626
v  -0.4187 0.0500 0.4626
v  0.4187 0.0500 0.4626
v  0.4486 3.9500 -0.4047
v  0.4486 3.9500 0.4327
v  0.4486 0.0500 0.4327
v  0.4486 0.0500 -0.4047
v  -0.4187 3.9500 -0.4346
v  0.4187 3.9500 -0.4346
v  0.4187 0.0500 -0.4346
v  -0.4187 0.0500 -0.4346
v  -0.4187 0.0000 -0.4047
v  -0.4187 0.0000 0.4327
v  0.4187 0.0000 -0.4047
v  0.4187 0.0000 0.4327
v  -0.4187 4.0000 -0.4047
v  -0.4187 4.0000 0.4327
v  0.4187 4.0000 -0.4047
v  0.4187 4.0000 0.4327
v  0.5682 3.7606 0.5822
v  -0.5682 3.7606 0.5822
v  -0.5682 3.7606 -0.5542
v  0.5682 3.7606 -0.5542
v  0.5682 4.2606 0.5822
v  0.5682 4.2606 -0.5542
v  -0.5682 4.2606 -0.5542
v  -0.5682 4.2606 0.5822
v  -0.5981 4.2106 0.5822
v  -0.5981 4.2106 -0.5542
v  -0.5981 3.8106 -0.5542
v  -0.5981 3.8106 0.5822
v  0.5682 4.2106 0.6121
v  -0.5682 4.2106 0.6121
v  -0.5682 3.8106 0.6121
v  0.5682 3.8106 0.6121
v  0.5981 4.2106 -0.5542
v  0.5981 4.2106 0.5822
v  0.5981 3.8106 0.5822
v  0.5981 3.8106 -0.5542
v  -0.5682 4.2106 -0.5841
v  0.5682 4.2106 -0.5841
v  0.5682 3.8106 -0.5841
v  -0.5682 3.8106 -0.5841
# 126 vertices

vn 0.0169 0.5676 -0.8232
vn 0.0275 0.4453 -0.8949
vn 0.0000 0.4602 -0.8878
vn 0.0000 0.5921 -0.8059
vn 0.0000 0.0460 -0.9989
vn 0.0219 0.0404 -0.9989
vn 0.0193 -0.0542 -0.9983
vn 0.0000 -0.0700 -0.9976
vn 0.1742 0.9721 -0.1571
vn 0.0000 0.9808 -0.1951
vn -0.0000 0.9551 0.2964
vn -0.0818 0.9926 0.0898
vn 0.8243 0.5660 -0.0125
vn 0.6726 0.7400 -0.0000
vn 0.8878 0.4602 -0.0000
vn 0.8961 0.4432 -0.0230
vn -0.3667 0.4255 0.8273
vn 0.0749 0.9972 -0.0000
vn 0.9984 -0.0542 -0.0143
vn 0.6174 -0.5145 -0.5951
vn 0.9990 0.0403 -0.0170
vn 0.0000 -0.5105 -0.8599
vn 0.9976 -0.0688 -0.0000
vn 0.8638 -0.5039 -0.0000
vn -0.0000 0.4120 0.9112
vn -0.6308 0.4282 0.6471
vn 0.9989 0.0460 0.0000
vn -0.0169 0.5676 -0.8232
vn -0.0275 0.4453 -0.8949
vn -0.0193 -0.0542 -0.9983
vn -0.0219 0.0404 -0.9989
vn -0.1775 0.9728 -0.1489
vn 0.0909 0.9929 0.0773
vn -0.8087 0.5882 0.0001
vn -0.8961 0.4432 -0.0230
vn -0.7836 0.6213 -0.0000
vn -0.8682 0.4963 0.0000
vn -0.5498 0.8353 -0.0000
vn 0.6602 0.7511 0.0000
vn -0.6174 -0.5145 -0.5951
vn -0.9984 -0.0542 -0.0143
vn -0.9990 0.0403 -0.0170
vn -0.8638 -0.5039 0.0000
vn -0.9976 -0.0688 0.0000
vn 0.6447 0.4049 0.6484
vn -0.9989 0.0460 0.0000
vn 0.0169 0.5676 0.8232
vn 0.0000 0.5921 0.8059
vn 0.0000 0.4602 0.8878
vn 0.0275 0.4453 0.8949
vn 0.0000 0.0460 0.9989
vn 0.0000 -0.0700 0.9976
vn 0.0193 -0.0542 0.9983
vn 0.0219 0.0404 0.9989
vn 0.1742 0.9721 0.1571
vn -0.0818 0.9926 -0.0898
vn -0.0000 0.9551 -0.2964
vn 0.0000 0.9808 0.1951
vn 0.8243 0.5660 0.0125
vn 0.8961 0.4432 0.0230
vn -0.3667 0.4255 -0.8273
vn 0.6174 -0.5145 0.5951
vn 0.9984 -0.0542 0.0143
vn 0.9990 0.0403 0.0170
vn 0.0000 -0.5105 0.8599
vn -0.6308 0.4282 -0.6471
vn -0.0000 0.4120 -0.9112
vn -0.0169 0.5676 0.8232
vn -0.0275 0.4453 0.8949
vn -0.0219 0.0404 0.9989
vn -0.0193 -0.0542 0.9983
vn -0.1775 0.9728 0.1489
vn 0.0909 0.9929 -0.0773
vn -0.8087 0.5882 -0.0001
vn -0.8961 0.4432 0.0230
vn -0.9984 -0.0542 0.0143
vn -0.6174 -0.5145 0.5951
vn -0.9990 0.0403 0.0170
vn 0.6447 0.4049 -0.6484
vn -0.9994 0.0075 0.0344
vn -0.9994 0.0075 -0.0344
vn -0.9994 -0.0075 -0.0344
vn -0.9994 -0.0075 0.0344
vn 0.0344 0.0075 0.9994
vn -0.0344 0.0075 0.9994
vn -0.0344 -0.0075 0.9994
vn 0.0344 -0.0075 0.9994
vn 0.9994 0.0075 -0.0344
vn 0.9994 0.0075 0.0344
vn 0.9994 -0.0075 0.0344
vn 0.9994 -0.0075 -0.0344
vn -0.0344 0.0075 -0.9994
vn 0.0344 0.0075 -0.9994
vn 0.0344 -0.0075 -0.9994
vn -0.0344 -0.0075 -0.9994
vn -0.5417 -0.6427 -0.5417
vn -0.5417 -0.6427 0.5417
vn 0.5417 -0.6427 -0.5417
vn 0.5417 -0.6427 0.5417
vn -0.5417 0.6427 -0.5417
vn -0.5417 0.6427 0.5417
vn 0.5417 0.6427 -0.5417
vn 0.5417 0.6427 0.5417
vn 0.0422 -0.9982 0.0422
vn -0.0422 -0.9982 0.0422
vn -0.0422 -0.9982 -0.0422
vn 0.0422 -0.9982 -0.0422
vn 0.0422 0.9982 0.0422
vn 0.0422 0.9982 -0.0422
vn -0.0422 0.9982 -0.0422
vn -0.0422 0.9982 0.0422
vn -0.9975 0.0659 0.0249
vn -0.9975 0.0659 -0.0249
vn -0.9975 -0.0659 -0.0249
vn -0.9975 -0.0659 0.0249
vn 0.0249 0.0659 0.9975
vn -0.0249 0.0659 0.9975
vn -0.0249 -0.0659 0.9975
vn 0.0249 -0.0659 0.9975
vn 0.9975 0.0659 -0.0249
vn 0.9975 0.0659 0.0249
vn 0.9975 -0.0659 0.0249
vn 0.9975 -0.0659 -0.0249
vn -0.0249 0.0659 -0.9975
vn 0.0249 0.0659 -0.9975
vn 0.0249 -0.0659 -0.9975
vn -0.0249 -0.0659 -0.9975
# 127 vertex normals

vt 0.9205 0.8501 0.0000
vt 0.9194 0.8358 0.0000
vt 0.9825 0.8582 0.0000
vt 0.9764 0.8721 0.0000
vt 0.9841 0.8518 0.0000
vt 0.9188 0.8326 0.0000
vt 0.9202 0.8152 0.0000
vt 0.9875 0.8327 0.0000
vt 0.9190 0.8520 0.0000
vt 0.9741 0.8757 0.0000
vt 0.9700 0.8818 0.0000
vt 0.9188 0.8613 0.0000
vt 0.9177 0.8498 0.0000
vt 0.8602 0.8738 0.0000
vt 0.8539 0.8601 0.0000
vt 0.9185 0.8352 0.0000
vt 0.8668 0.8823 0.0000
vt 0.8632 0.8770 0.0000
vt 0.9167 0.8148 0.0000
vt 0.9185 0.8124 0.0000
vt 0.9186 0.8319 0.0000
vt 0.9876 0.8296 0.0000
vt 0.8479 0.8351 0.0000
vt 0.8477 0.8321 0.0000
vt 0.9679 0.8839 0.0000
vt 0.9191 0.8642 0.0000
vt 0.8519 0.8540 0.0000
vt 0.9189 0.8642 0.0000
vt 0.8679 0.8848 0.0000
vt 0.9148 0.7660 0.0000
vt 0.8588 0.7879 0.0000
vt 0.8528 0.7740 0.0000
vt 0.9159 0.7517 0.0000
vt 0.8511 0.7676 0.0000
vt 0.8478 0.7485 0.0000
vt 0.9151 0.7311 0.0000
vt 0.9165 0.7485 0.0000
vt 0.9163 0.7679 0.0000
vt 0.9164 0.7772 0.0000
vt 0.8652 0.7976 0.0000
vt 0.8611 0.7916 0.0000
vt 0.9175 0.7657 0.0000
vt 0.9168 0.7511 0.0000
vt 0.9814 0.7762 0.0000
vt 0.9750 0.7898 0.0000
vt 0.9720 0.7930 0.0000
vt 0.9684 0.7983 0.0000
vt 0.9168 0.7284 0.0000
vt 0.9186 0.7307 0.0000
vt 0.9167 0.7478 0.0000
vt 0.8477 0.7454 0.0000
vt 0.9876 0.7481 0.0000
vt 0.9874 0.7512 0.0000
vt 0.9162 0.7801 0.0000
vt 0.8673 0.7997 0.0000
vt 0.9833 0.7700 0.0000
vt 0.9673 0.8009 0.0000
vt 0.9164 0.7801 0.0000
vt 0.6627 0.3038 0.0000
vt 0.5739 0.3040 0.0000
vt 0.5738 0.0547 0.0000
vt 0.6626 0.0548 0.0000
vt 0.3868 0.3040 0.0000
vt 0.2979 0.3041 0.0000
vt 0.2978 0.0547 0.0000
vt 0.3868 0.0547 0.0000
vt 0.4787 0.3040 0.0000
vt 0.3903 0.3040 0.0000
vt 0.3902 0.0547 0.0000
vt 0.4786 0.0547 0.0000
vt 0.5705 0.3040 0.0000
vt 0.4821 0.3040 0.0000
vt 0.4820 0.0547 0.0000
vt 0.5704 0.0547 0.0000
vt 0.5721 0.0504 0.0000
vt 0.6630 0.0506 0.0000
vt 0.6668 0.0542 0.0000
vt 0.4803 0.0504 0.0000
vt 0.3886 0.0505 0.0000
vt 0.5721 0.3083 0.0000
vt 0.6669 0.3044 0.0000
vt 0.6631 0.3081 0.0000
vt 0.4804 0.3083 0.0000
vt 0.3887 0.3083 0.0000
vt 0.2981 0.0501 0.0000
vt 0.2981 0.3087 0.0000
vt 1.3720 1.0360 0.0000
vt 1.3720 0.0360 0.0000
vt 2.3720 0.0360 0.0000
vt 2.3720 1.0360 0.0000
vt 0.6993 0.8958 0.0000
vt 0.6993 0.7933 0.0000
vt 0.8027 0.7933 0.0000
vt 0.8027 0.8958 0.0000
vt 0.8063 0.8969 0.0000
vt 0.8063 0.7922 0.0000
vt 0.8281 0.7928 0.0000
vt 0.8281 0.8963 0.0000
vt 0.6992 0.8986 0.0000
vt 0.8028 0.8986 0.0000
vt 0.8026 0.9197 0.0000
vt 0.6993 0.9197 0.0000
vt 0.6956 0.7922 0.0000
vt 0.6956 0.8969 0.0000
vt 0.6738 0.8963 0.0000
vt 0.6738 0.7928 0.0000
vt 0.8028 0.7905 0.0000
vt 0.6992 0.7905 0.0000
vt 0.6993 0.7694 0.0000
vt 0.8026 0.7694 0.0000
vt 0.8063 0.7691 0.0000
vt 0.8031 0.7658 0.0000
vt 0.8031 0.9233 0.0000
vt 0.8063 0.9200 0.0000
vt 0.6957 0.7691 0.0000
vt 0.6989 0.7658 0.0000
vt 0.6989 0.9233 0.0000
vt 0.6957 0.9200 0.0000
vt 0.6700 0.7928 0.0000
vt 0.6700 0.8963 0.0000
vt 0.8320 0.8963 0.0000
vt 0.8320 0.7928 0.0000
# 122 texture coords

g FenceColumn
usemtl Material__3003
s 1
f 1/1/1 2/2/2 3/3/3 
f 3/3/3 4/4/4 1/1/1 
f 5/5/5 6/6/6 7/7/7 
f 7/7/7 8/8/8 5/5/5 
f 9/9/9 10/10/10 11/11/11 
f 11/11/11 12/12/12 9/9/9 
f 13/13/13 14/14/14 15/15/15 
f 15/15/15 16/16/16 13/13/13 
f 12/12/12 17/17/17 18/18/18 
f 18/18/18 9/9/9 12/12/12 
f 7/7/7 19/19/19 20/20/20 
f 21/21/21 6/6/6 2/2/2 
f 2/2/2 16/16/16 21/21/21 
f 9/9/9 13/13/13 1/1/1 
f 7/7/7 20/20/20 22/22/22 
f 22/22/22 8/8/8 7/7/7 
f 5/5/5 3/3/3 2/2/2 
f 2/2/2 6/6/6 5/5/5 
f 9/9/9 1/1/1 4/4/4 
f 4/4/4 10/10/10 9/9/9 
f 19/19/19 23/23/23 24/24/24 
f 24/24/24 20/20/20 19/19/19 
f 1/1/1 13/13/13 16/16/16 
f 16/16/16 2/2/2 1/1/1 
f 6/6/6 21/21/21 19/19/19 
f 19/19/19 7/7/7 6/6/6 
f 9/9/9 18/18/18 14/14/14 
f 14/14/14 13/13/13 9/9/9 
f 12/12/12 11/11/11 25/25/25 
f 25/25/25 26/26/26 12/12/12 
f 19/19/19 21/21/21 27/27/27 
f 27/27/27 23/23/23 19/19/19 
f 27/27/27 21/21/21 16/16/16 
f 16/16/16 15/15/15 27/27/27 
f 17/17/17 12/12/12 26/28/26 
f 26/28/26 18/29/18 17/17/17 
f 28/30/28 4/31/4 3/32/3 
f 3/32/3 29/33/29 28/30/28 
f 5/34/5 8/35/8 30/36/30 
f 30/36/30 31/37/31 5/34/5 
f 32/38/32 33/39/33 11/40/11 
f 11/40/11 10/41/10 32/38/32 
f 34/42/34 35/43/35 36/44/36 
f 36/44/36 37/45/37 34/42/34 
f 33/39/33 32/38/32 38/46/38 
f 38/46/38 39/47/39 33/39/33 
f 30/36/30 40/48/40 41/49/41 
f 42/50/42 35/43/35 29/33/29 
f 29/33/29 31/37/31 42/50/42 
f 32/38/32 28/30/28 34/42/34 
f 30/36/30 8/35/8 22/51/22 
f 22/51/22 40/48/40 30/36/30 
f 5/34/5 31/37/31 29/33/29 
f 29/33/29 3/32/3 5/34/5 
f 32/38/32 10/41/10 4/31/4 
f 4/31/4 28/30/28 32/38/32 
f 41/49/41 40/48/40 43/52/43 
f 43/52/43 44/53/44 41/49/41 
f 28/30/28 29/33/29 35/43/35 
f 35/43/35 34/42/34 28/30/28 
f 31/37/31 30/36/30 41/49/41 
f 41/49/41 42/50/42 31/37/31 
f 32/38/32 34/42/34 37/45/37 
f 37/45/37 38/46/38 32/38/32 
f 33/39/33 45/54/45 25/55/25 
f 25/55/25 11/40/11 33/39/33 
f 41/49/41 44/53/44 46/56/46 
f 46/56/46 42/50/42 41/49/41 
f 46/56/46 36/44/36 35/43/35 
f 35/43/35 42/50/42 46/56/46 
f 39/47/39 37/57/37 45/58/45 
f 45/58/45 33/39/33 39/47/39 
f 47/1/47 48/4/48 49/3/49 
f 49/3/49 50/2/50 47/1/47 
f 51/5/51 52/8/52 53/7/53 
f 53/7/53 54/6/54 51/5/51 
f 55/9/55 56/12/56 57/11/57 
f 57/11/57 58/10/58 55/9/55 
f 59/13/59 60/16/60 15/15/15 
f 15/15/15 14/14/14 59/13/59 
f 56/12/56 55/9/55 18/18/18 
f 18/18/18 17/17/61 56/12/56 
f 53/7/53 61/20/62 62/19/63 
f 63/21/64 60/16/60 50/2/50 
f 50/2/50 54/6/54 63/21/64 
f 55/9/55 47/1/47 59/13/59 
f 53/7/53 52/8/52 64/22/65 
f 64/22/65 61/20/62 53/7/53 
f 51/5/51 54/6/54 50/2/50 
f 50/2/50 49/3/49 51/5/51 
f 55/9/55 58/10/58 48/4/48 
f 48/4/48 47/1/47 55/9/55 
f 62/19/63 61/20/62 24/24/24 
f 24/24/24 23/23/23 62/19/63 
f 47/1/47 50/2/50 60/16/60 
f 60/16/60 59/13/59 47/1/47 
f 54/6/54 53/7/53 62/19/63 
f 62/19/63 63/21/64 54/6/54 
f 55/9/55 59/13/59 14/14/14 
f 14/14/14 18/18/18 55/9/55 
f 56/12/56 65/26/66 66/25/67 
f 66/25/67 57/11/57 56/12/56 
f 62/19/63 23/23/23 27/27/27 
f 27/27/27 63/21/64 62/19/63 
f 27/27/27 15/15/15 60/16/60 
f 60/16/60 63/21/64 27/27/27 
f 17/17/61 18/29/18 65/28/66 
f 65/28/66 56/12/56 17/17/61 
f 67/30/68 68/33/69 49/32/49 
f 49/32/49 48/31/48 67/30/68 
f 51/34/51 69/37/70 70/36/71 
f 70/36/71 52/35/52 51/34/51 
f 71/38/72 58/41/58 57/40/57 
f 57/40/57 72/39/73 71/38/72 
f 73/42/74 37/45/37 36/44/36 
f 36/44/36 74/43/75 73/42/74 
f 72/39/73 39/47/39 38/46/38 
f 38/46/38 71/38/72 72/39/73 
f 70/36/71 75/49/76 76/48/77 
f 77/50/78 69/37/70 68/33/69 
f 68/33/69 74/43/75 77/50/78 
f 71/38/72 73/42/74 67/30/68 
f 70/36/71 76/48/77 64/51/65 
f 64/51/65 52/35/52 70/36/71 
f 51/34/51 49/32/49 68/33/69 
f 68/33/69 69/37/70 51/34/51 
f 71/38/72 67/30/68 48/31/48 
f 48/31/48 58/41/58 71/38/72 
f 75/49/76 44/53/44 43/52/43 
f 43/52/43 76/48/77 75/49/76 
f 67/30/68 73/42/74 74/43/75 
f 74/43/75 68/33/69 67/30/68 
f 69/37/70 77/50/78 75/49/76 
f 75/49/76 70/36/71 69/37/70 
f 71/38/72 38/46/38 37/45/37 
f 37/45/37 73/42/74 71/38/72 
f 72/39/73 57/40/57 66/55/67 
f 66/55/67 78/54/79 72/39/73 
f 75/49/76 77/50/78 46/56/46 
f 46/56/46 44/53/44 75/49/76 
f 46/56/46 77/50/78 74/43/75 
f 74/43/75 36/44/36 46/56/46 
f 39/47/39 72/39/73 78/58/79 
f 78/58/79 37/57/37 39/47/39 
f 79/59/80 80/60/81 81/61/82 
f 81/61/82 82/62/83 79/59/80 
f 83/63/84 84/64/85 85/65/86 
f 85/65/86 86/66/87 83/63/84 
f 87/67/88 88/68/89 89/69/90 
f 89/69/90 90/70/91 87/67/88 
f 91/71/92 92/72/93 93/73/94 
f 93/73/94 94/74/95 91/71/92 
f 81/61/82 94/74/95 95/75/96 
f 96/76/97 85/77/86 82/62/83 
f 93/73/94 90/70/91 97/78/98 
f 98/79/99 89/69/90 86/66/87 
f 80/60/81 99/80/100 91/71/92 
f 84/81/85 100/82/101 79/59/80 
f 92/72/93 101/83/102 87/67/88 
f 88/68/89 102/84/103 83/63/84 
f 95/75/96 94/74/95 93/73/94 
f 93/73/94 97/78/98 95/75/96 
f 97/78/98 90/70/91 89/69/90 
f 89/69/90 98/79/99 97/78/98 
f 98/79/99 86/66/87 85/65/86 
f 85/65/86 96/85/97 98/79/99 
f 96/76/97 82/62/83 81/61/82 
f 81/61/82 95/75/96 96/76/97 
f 99/80/100 80/60/81 79/59/80 
f 79/59/80 100/82/101 99/80/100 
f 100/86/101 84/64/85 83/63/84 
f 83/63/84 102/84/103 100/86/101 
f 102/84/103 88/68/89 87/67/88 
f 87/67/88 101/83/102 102/84/103 
f 101/83/102 92/72/93 91/71/92 
f 91/71/92 99/80/100 101/83/102 
f 82/62/83 85/77/86 84/81/85 
f 84/81/85 79/59/80 82/62/83 
f 80/60/81 91/71/92 94/74/95 
f 94/74/95 81/61/82 80/60/81 
f 86/66/87 89/69/90 88/68/89 
f 88/68/89 83/63/84 86/66/87 
f 90/70/91 93/73/94 92/72/93 
f 92/72/93 87/67/88 90/70/91 
f 103/87/104 104/88/105 105/89/106 
f 105/89/106 106/90/107 103/87/104 
f 107/91/108 108/92/109 109/93/110 
f 109/93/110 110/94/111 107/91/108 
f 111/95/112 112/96/113 113/97/114 
f 113/97/114 114/98/115 111/95/112 
f 115/99/116 116/100/117 117/101/118 
f 117/101/118 118/102/119 115/99/116 
f 119/103/120 120/104/121 121/105/122 
f 121/105/122 122/106/123 119/103/120 
f 123/107/124 124/108/125 125/109/126 
f 125/109/126 126/110/127 123/107/124 
f 113/111/114 126/110/127 105/112/106 
f 104/113/105 117/101/118 114/114/115 
f 125/109/126 122/115/123 106/116/107 
f 103/117/104 121/118/122 118/102/119 
f 112/96/113 109/93/110 123/107/124 
f 116/100/117 110/94/111 111/95/112 
f 124/108/125 108/92/109 119/103/120 
f 120/104/121 107/91/108 115/99/116 
f 105/112/106 126/110/127 125/109/126 
f 125/109/126 106/116/107 105/112/106 
f 106/119/107 122/106/123 121/105/122 
f 121/105/122 103/120/104 106/119/107 
f 103/117/104 118/102/119 117/101/118 
f 117/101/118 104/113/105 103/117/104 
f 104/121/105 114/98/115 113/97/114 
f 113/97/114 105/122/106 104/121/105 
f 109/93/110 112/96/113 111/95/112 
f 111/95/112 110/94/111 109/93/110 
f 110/94/111 116/100/117 115/99/116 
f 115/99/116 107/91/108 110/94/111 
f 107/91/108 120/104/121 119/103/120 
f 119/103/120 108/92/109 107/91/108 
f 108/92/109 124/108/125 123/107/124 
f 123/107/124 109/93/110 108/92/109 
f 114/114/115 117/101/118 116/100/117 
f 116/100/117 111/95/112 114/114/115 
f 112/96/113 123/107/124 126/110/127 
f 126/110/127 113/111/114 112/96/113 
f 118/102/119 121/118/122 120/104/121 
f 120/104/121 115/99/116 118/102/119 
f 122/115/123 125/109/126 124/108/125 
f 124/108/125 119/103/120 122/115/123 
# 228 faces

